<?xml version="1.0" encoding="UTF-8"?>
<svg xmlns="http://www.w3.org/2000/svg" version="1.1" viewBox="0 0 595.28 841.89">
  <defs>
    <style>
      .cls-1, .cls-2 {
        fill: #1d1d1b;
      }

      .cls-2, .cls-3 {
        stroke: #1d1d1b;
        stroke-miterlimit: 10;
        stroke-width: 6px;
      }

      .cls-4 {
        fill: #fff;
      }

      .cls-3 {
        fill: none;
      }
    </style>
  </defs>
  <!-- Generator: Adobe Illustrator 28.7.1, SVG Export Plug-In . SVG Version: 1.2.0 Build 142)  -->
  <g>
    <g id="Laag_1">
      <rect class="cls-4" x="101.48" y="174.02" width="410.09" height="389.13"/>
    </g>
    <g id="Laag_2">
      <rect class="cls-3" x="352.22" y="309.22" width="139.53" height="153.61"/>
      <path class="cls-2" d="M479.4,558.36l-24.87,5.4c-3.04.66-5.97-1.56-6.56-4.96l-12.26-70.8c-.59-3.4,1.4-6.68,4.43-7.34l24.87-5.4c3.04-.66,5.97,1.56,6.56,4.96l12.26,70.8c.59,3.4-1.4,6.68-4.43,7.34Z"/>
      <path class="cls-2" d="M389.91,563.53l-25.03-4.42c-3.05-.54-5.14-3.75-4.66-7.16l10.04-71.23c.48-3.42,3.35-5.75,6.4-5.21l25.03,4.42c3.05.54,5.14,3.75,4.66,7.16l-10.04,71.23c-.48,3.42-3.35,5.75-6.4,5.21Z"/>
      <ellipse class="cls-3" cx="419.09" cy="385.77" rx="40.68" ry="45.52"/>
      <polygon class="cls-2" points="372.22 385.77 297.14 326.48 297.14 445.05 372.22 385.77"/>
      <path class="cls-1" d="M398.66,336.35c12.06-1.27,24.15-2.01,36.28-2.12,5.9-.05,11.79.03,17.68.26,2.95.11,5.89.26,8.83.45,1.8.11,4.42-.12,5.77,1.24,1.46,1.46,2.16,5.18,2.75,7.01.84,2.6,1.56,5.23,2.18,7.89,1.23,5.29,2.09,10.65,2.68,16.04,1.27,11.55,1.92,23.18,2.77,34.76.71,9.54,15.58,9.69,15,0-1.65-27.59-14.77-55.83-40.3-68.8-6.61-3.36-14,3.48-10.26,10.26,4.67,8.45,10.19,16.29,16.41,23.67,6.23,7.39,16.79-3.27,10.61-10.61-5.4-6.4-10.01-13.31-14.06-20.63l-10.26,10.26c20.76,10.55,31.52,33.31,32.87,55.85h15c-.97-13.1-1.64-26.28-3.32-39.31-.83-6.4-1.86-12.77-3.55-19.01-1.6-5.88-3.43-13.09-7.58-17.74s-9.9-5.42-15.72-5.81c-6.86-.47-13.74-.71-20.62-.77-14.42-.13-28.82.61-43.16,2.12-4.03.42-7.5,3.14-7.5,7.5,0,3.73,3.45,7.93,7.5,7.5h0Z"/>
      <path class="cls-1" d="M468.22,415.09c-1.15,10.28-13.04,16.81-10.53,27.67,1.13,4.9,4.66,8.68,8.97,11.11,3.8,2.15,8.9,2.6,11.94,5.87,2.43-4.18,4.86-8.36,7.3-12.54-6.75-1.41-13.62-2.32-20.52-2.48-3.11-.07-6.23,0-9.34.24-1.86.14-3.72.34-5.57.57l-1.99.27c-2.13-.06-1.37.67,2.28,2.18l1.02,3.79.07-.84-2.2,5.3c3.68-4.24,8.3-7.63,11.99-11.94s7.22-9.13,10.17-14.12c5.31-9,11.85-21.35,5.49-31.38-3.01-4.75-9.98-4.94-12.95,0-8.82,14.67-23.25,24.49-39.98,27.82-8.75,1.74-5.98,14.14,1.99,14.73,12.92.96,25.44-6.98,35.22-14.67,10.78-8.47,12.89-20.62,13.46-33.62.43-9.65-14.57-9.63-15,0-.4,8.96-1.12,17.14-8.85,22.78-7.1,5.19-15.69,11.18-24.84,10.51l1.99,14.73c20.41-4.06,38.25-16.93,48.95-34.72h-12.95c1.68,2.64-.48,6.46-1.68,9.03-1.84,3.94-4,7.74-6.41,11.36-2.37,3.55-5.02,6.87-7.94,9.98s-7.35,6-9.86,9.66c-2.65,3.87-1.97,8.96,1.69,11.94,3.35,2.72,7.29,2.59,11.31,2.09,10.17-1.24,20.41-.84,30.44,1.25,7.3,1.53,12.54-6.89,7.3-12.54-2.85-3.07-6.37-4.81-10.22-6.31-1.95-.76-6.56-1.83-6.31-3.78.15-1.2,2.41-3.25,3.12-4.19,1.37-1.81,2.59-3.65,3.58-5.69,2.2-4.54,3.29-9.09,3.85-14.08.45-4.03-3.77-7.5-7.5-7.5-4.43,0-7.05,3.46-7.5,7.5h0Z"/>
      <path class="cls-1" d="M437.36,432.95c-8.74,1.27-17.79-.32-25.67-4.21l-7.57,12.95c3.29,1.47,6.58,2.94,9.87,4.4,1.93-4.57,3.85-9.14,5.78-13.71-15.7-3.1-31.37-6.32-47.02-9.68-3.85-.83-8.25,1.11-9.23,5.24-1.81,7.62-5.3,14.16-10.77,19.77l12.8,5.3c2.29-19.57,3.06-39.25,2.29-58.94l-12.8,5.3c8.07,9.79,16.15,19.57,24.22,29.36,5.37,6.51,16.71-2.13,11.78-9.09-2.48-3.5-4.95-7-7.43-10.49-1.06-1.5-2.17-2.97-3.18-4.5-.56-.78-1.08-1.6-1.54-2.45-.54-.8-.49-1.04.16-.72h-14.46c3.84,12.46,3.19,25.02-1.59,37.12-1.5,3.79,1.64,8.2,5.24,9.23,4.25,1.21,7.74-1.49,9.23-5.24,5.68-14.37,6.14-30.35,1.59-45.1-2.34-7.61-11.75-6.58-14.46,0-2.1,5.09,0,10.42,2.89,14.73,3.41,5.08,7.08,10,10.61,14.99l11.78-9.09c-8.07-9.79-16.15-19.57-24.22-29.36-4.16-5.05-13.04-.88-12.8,5.3.77,19.69,0,39.37-2.29,58.94-.78,6.67,8.6,9.61,12.8,5.3,7.19-7.37,12.25-16.36,14.63-26.39l-9.23,5.24c15.65,3.35,31.32,6.58,47.02,9.68,7.74,1.53,14.04-10.02,5.78-13.71-3.29-1.47-6.58-2.94-9.87-4.4-3.73-1.66-8.02-1.05-10.26,2.69-1.97,3.29-.93,8.48,2.69,10.26,11.84,5.84,24.21,7.63,37.23,5.73,4-.58,6.23-5.67,5.24-9.23-1.2-4.3-5.19-5.83-9.23-5.24h0Z"/>
      <path class="cls-1" d="M383.21,359.89c-.15-3.3,3.67-4.88,6.11-6.36,3.19-1.94,6.52-3.85,7.53-7.73.86-3.31-.29-7.11-.8-10.41-.23-1.5-.53-3-.67-4.5-.07-.86-.11-1.73-.13-2.59.63-1.25.08-1.42-1.64-.51,3.33.57,6.68-.38,8.47-3.45,1.54-2.64,1.4-7.06-1.17-9.09-5.73-4.52-11.14-4.31-18.08-3.44-3.55.45-7.13.69-10.71.71-1.52.01-3.04-.02-4.55-.09-.91-.03-1.82-.08-2.73-.15-2.52-.5-2.45-.11.2,1.18-3.55-6.33-14.35-3.72-13.98,3.79.51,10.06,1.01,20.12,1.52,30.18s15.49,9.66,15,0-1.01-20.12-1.52-30.18c-4.66,1.26-9.32,2.52-13.98,3.79,3.64,6.5,11.63,6.4,18.21,6.48,3.64.04,7.29-.13,10.91-.51,1.87-.2,3.73-.53,5.61-.73.81-.09,3.94-.06,3.49-.42,2.43-4.18,4.86-8.36,7.3-12.54-5.86-1-11.31.8-14.66,5.99s-2.73,10.91-1.88,16.64c.21,1.43.44,2.85.66,4.28.85,5.45,1.4-.63,1.51-.53-.49-.44-6.74,4.32-7.37,4.81-4.76,3.8-7.94,9.15-7.66,15.38.43,9.61,15.43,9.67,15,0h0Z"/>
      <path class="cls-1" d="M377.91,311.73c-3.01.53-6.17-.31-9-2.05v12.95c.16-.07,1.58-.1,1.91.16,3.15,2.54,7.52,3.08,10.61,0,2.63-2.63,3.17-8.06,0-10.61-6.04-4.85-13.03-5.79-20.08-2.51-5.33,2.48-4.42,10.24,0,12.95,6.29,3.86,13.37,4.84,20.56,3.56,3.99-.71,6.24-5.58,5.24-9.23-1.16-4.21-5.22-5.95-9.23-5.24h0Z"/>
      <path class="cls-1" d="M475.09,329.71c5.06-1.56,9.91-3.8,14.27-6.83,3.32-2.31,4.85-6.57,2.69-10.26-1.92-3.29-6.92-5.02-10.26-2.69-3.6,2.51-6.89,4.15-10.68,5.32s-6.33,5.24-5.24,9.23,5.34,6.43,9.23,5.24h0Z"/>
    </g>
    <g id="Laag_3">
      <path class="cls-1" d="M427.42,377.08c-5.1-.82-10.14-1.28-15.31-1.12l7.5,7.5c-.04-1.16.1-1.79,1.09-2.59.58-.47,1.13-.71,1.82-.81-.37.05-.8-1.53-.39.03s.32,3.17.27,4.74c-.07,2.54-.43,2.8-2.63,3.91-1.5.76-2.2,1.46-3.02.87-1.18-.84-1.03-2.9-.75-4.05.73-3,5.26-6.61,8.54-4.86,4.3,2.3,1.38,14.56-3.68,15.53-7.84,1.51-4.63-11.79-3.24-15.39s2.36-5.14,5.96-2.82c2.95,1.9,3.91,5.45,3.2,8.82-1.21,5.7-10.61,10.54-13.11,3.1-1.78-5.3,4.91-17.12,11.1-11.7,2.52,2.21,2.43,7.08,2.42,10.11,0,1.32.24,4.02-.62,5.17-.92,1.23-3.3,1.23-4.79,1.46-2.66.4-5.36.62-8.05.73.21,0-3.6-.03-3.67.08,3.11,3.33,4.2,3.92,3.29,1.79-.29-.84-.57-1.68-.84-2.53-1.45-4.69-2.77-10.14-.72-14.87,1.67-3.86,6.21-5.11,10.14-4.94,4.36.18,4.27,5.31,4.83,8.87.63,3.99,5.64,6.24,9.23,5.24,4.26-1.19,5.87-5.19,5.24-9.23-1.62-10.24-6.46-19.08-17.85-19.84-10.02-.66-20.58,3.81-24.97,13.19s-3.19,23.23,2.1,32.08c2.97,4.97,7.99,5.37,13.23,5.15,5.51-.23,11.65-.55,16.9-2.38,10.54-3.68,12.33-14.85,11.33-24.7-1.06-10.38-6.67-20.04-17.91-21.21-21.43-2.25-35.34,28.05-17.96,41.91,8.04,6.41,19.48,5.33,27.21-.99s10.55-17.12,7.37-26.5c-3.36-9.88-15-17.71-25.46-14.23-9.1,3.03-12.77,14-13.99,22.55-1.42,9.96,1.53,20.67,11.6,24.71,8.79,3.53,18.44.04,23.73-7.62s6.58-19.62,2.03-27.99c-5.41-9.96-19.12-10.89-28.03-5.1-9.78,6.36-13.22,20.89-5.27,30.07,7.84,9.05,23.13,5.95,29.44-3.63,5.55-8.41,3.75-25.7-6.71-29.57-11.29-4.18-23.77,5.8-23.39,17.46.13,3.95,3.33,7.63,7.5,7.5,3.8-.12,7.56-.02,11.32.58,4.03.65,8.02-1.04,9.23-5.24,1.02-3.56-1.24-8.59-5.24-9.23h0Z"/>
      <path class="cls-1" d="M355.54,323.87l-1.2,57.25c-.19,8.94,11.88,9.53,14.73,1.99,7.38-19.52,16.65-38.23,27.61-55.99,3.54-5.73-2.29-12.54-8.47-11.02-5.78,1.43-11.41,1.68-17.32,1.04-3.9-.42-7.69,3.78-7.5,7.5,1.6,30.86.99,61.78-1.81,92.56l14.73-1.99c-1.97-5.59-2.99-11.09-3.03-17.01-.06-9.73-14.38-9.56-15,0-1.2,18.47-2.4,36.94-3.61,55.41-.21,3.24,2.48,6.41,5.51,7.23,8.06,2.19,15.27-3.41,17.49-11.08,1.23-4.23.81-8.55.5-12.87-.14-1.93-.47-6.81.64-7.56l-5.78.76c8.72,2.9,16.67,7.23,24.08,12.64v-12.95c-7.89,4.14-16.41,6.84-25.3,7.69-6.82.65-10.94,10.21-3.79,13.98,18.46,9.73,38.51,3.98,56.86-2.95-1.93-4.57-3.85-9.14-5.78-13.71-14.58,6.84-29.85,11.92-45.57,15.37-8.25,1.81-6.45,15.01,1.99,14.73,20.9-.69,41.79-1.87,62.63-3.58,10.43-.85,20.84-1.84,31.25-2.95,4.69-.5,10.62-.24,14.78-2.76,3.64-2.21,5.45-6.21,6.27-10.23,4.02-19.6-3.59-39.62-5.38-59.05-1.88-20.39-.87-40.9.14-61.3.41-8.37-12.98-10.31-14.73-1.99-3.87,18.32-2.76,37.36,4,54.88,3.11,8.04,13.81,6.55,14.73-1.99,1.99-18.4,2.47-36.89,1.45-55.38-.18-3.2-2.19-6.46-5.51-7.23-21.74-5.04-44.91-8.04-67.24-6.31-19.39,1.51-38.47,10.85-43.54,31.11-1.49,5.97,3.66,10.13,9.23,9.23,23.8-3.88,55.41-19.09,76.53.04,5.94,5.39,17.09-1.87,11.78-9.09-5.8-7.89-15.65-12.5-25.24-8.48-6.85,2.87-7.32,11.74,0,14.46,6.79,2.53,8.93,14.03,10.52,20.04,2.85,10.78,4.85,21.8,4.29,32.99-.76,15.06-9.4,36.57-27.4,36.58-9.65,0-9.67,14.94,0,15,14.07.09,28.07-1.7,41.68-5.25,9.33-2.43,5.38-16.91-3.99-14.46-12.39,3.23-24.89,4.79-37.69,4.71v15c26.06-.02,40.54-26.81,42.29-49.74,1.08-14.22-1.79-28.79-5.69-42.4-3.25-11.33-8.29-22.57-20.02-26.94v14.46c2.97-1.24,6.18-1.29,8.3,1.59l11.78-9.09c-11.11-10.06-25.6-14.14-40.42-13.59-17.31.64-33.73,6.92-50.71,9.69l9.23,9.23c4.12-16.43,21.13-20.11,35.92-20.4,19-.37,37.91,1.78,56.42,6.07l-5.51-7.23c1.02,18.48.54,36.97-1.45,55.38l14.73-1.99c-5.8-15.02-7.34-31.12-4-46.91l-14.73-1.99c-.91,18.51-1.83,37.08-.6,55.59.64,9.5,1.95,18.9,3.68,28.25,1.62,8.71,3.41,17.42,3.2,26.34-.05,2.07-.16,4.14-.51,6.19-.14.69-.29,1.39-.43,2.08,1.84-1.02,1.74-1.26-.3-.74-4.31-.36-9.37,1.02-13.66,1.45-9.43.95-18.88,1.79-28.33,2.53-19.22,1.5-38.48,2.55-57.75,3.19l1.99,14.73c17.01-3.73,33.39-9.48,49.15-16.88,7.61-3.57,2.2-16.72-5.78-13.71-13.94,5.26-30.97,12.01-45.3,4.46-1.26,4.66-2.52,9.32-3.79,13.98,11.64-1.11,22.5-4.3,32.87-9.74,5.43-2.85,4.24-9.85,0-12.95-5.13-3.75-10.55-7.05-16.33-9.7-5.38-2.46-12.5-6.75-18.09-3.05-4.75,3.15-6.75,8.96-7.17,14.4-.22,2.77.14,5.5.31,8.26.11,1.81-.07,3.6.01,5.39l-.27.92c-.95,1.01-.61,1.14,1.02.38l5.51,7.23c1.2-18.47,2.4-36.94,3.61-55.41h-15c.05,7.17,1.18,14.24,3.56,21,2.87,8.15,13.96,6.48,14.73-1.99,2.8-30.78,3.41-61.69,1.81-92.56l-7.5,7.5c7.19.78,14.3.16,21.31-1.57l-8.47-11.02c-11.64,18.87-21.28,38.84-29.12,59.58l14.73,1.99,1.2-57.25c.2-9.66-14.8-9.65-15,0h0Z"/>
      <path class="cls-1" d="M384.42,349.44c10.18.3,19.05-5.01,28.88-6.7,9.45-1.63,18.96-.36,27.94,2.78s13.06-11.3,3.99-14.46c-9.73-3.4-20.2-4.74-30.46-3.56-5.08.58-10.01,1.61-14.86,3.23-5.11,1.71-10.01,3.88-15.49,3.72-9.66-.29-9.65,14.71,0,15h0Z"/>
      <path class="cls-1" d="M484.26,458.38c9.65,0,9.67-15,0-15s-9.67,15,0,15h0Z"/>
      <text/>
      <g>
        <path class="cls-1" d="M85.2,313.02c.42.08.62.12,1.04.21.29,1.26.43,1.88.71,3.14-.05-1.21-.08-1.81-.13-3.02.62.12.94.19,1.56.31.42,1.06.62,1.59,1.04,2.64,0,1.73,0,2.6,0,4.33-.05.21-.08.31-.13.52.13.46.2.68.33,1.14-.21.18-.31.27-.52.45.08,1.53.12,2.3.2,3.82.16.67.23,1.01.39,1.68-.1,6.69-.16,10.04-.26,16.74-.05,8.44-.08,12.66-.13,21.1-.08.32-.12.48-.2.79.08.55.12.82.2,1.37v8.66c.34.99.51,1.48.84,2.46.36-.53.55-.79.91-1.32v-.81c.47-2.35.7-3.53,1.17-5.87.16-.21.23-.31.39-.52.08-.96.12-1.44.2-2.4,1.66-9.13,2.5-13.65,4.16-22.58.13.02.19.02.32.04.13-1.36.2-2.05.33-3.41.18-.29.27-.44.45-.74-.1-.65-.16-.97-.26-1.62,1.09-5.68,1.64-8.5,2.73-14.09.21-.49.31-.73.52-1.22,0-.63,0-.95,0-1.58.34-1.93.51-2.9.84-4.82.08.33.12.49.2.82.23-1.32.35-1.97.58-3.28.29-.26.43-.39.71-.64.99.2,1.48.3,2.47.5v3.63c-.1.5-.16.75-.26,1.24.1.64.16.96.26,1.61.13-.29.19-.43.32-.72v.78c.21-.27.31-.41.52-.68v-2.07c.1-.39.16-.59.26-.98-.1-.74-.16-1.12-.26-1.86.08-.29.12-.44.2-.74.05.32.08.48.13.8.23.05.35.07.58.12.13.64.2.97.33,1.61v3.35c-.08.29-.12.44-.2.74v1.81c-.29,1.08-.43,1.63-.71,2.71v1.55c-.42,1.38-.62,2.07-1.04,3.45v1.29c-.57,3.23-.86,4.85-1.43,8.1-.29-.04-.43-.06-.71-.09-.05,2.08-.08,3.12-.13,5.2-.08-.32-.12-.48-.2-.81-.1,1.45-.16,2.17-.26,3.62-.1-.01-.16-.02-.26-.03-.13.51-.2.76-.33,1.27-.26,2.38-.39,3.57-.65,5.96-.47,1.74-.7,2.61-1.17,4.35-.13,1.78-.2,2.67-.33,4.44-.34,1.13-.51,1.7-.84,2.84v-1.58c-.23-.02-.35-.02-.58-.04,0,2.32,0,3.48,0,5.8-.21,1.68-.31,2.52-.52,4.2,0,2.54,0,3.81,0,6.34.23,2.86.35,4.29.58,7.14-.08.63-.12.95-.2,1.58.05.53.08.79.13,1.32.13-.21.2-.32.33-.53v2.11c.1,0,.16,0,.26,0,.18,2.53.27,3.79.45,6.31.21,1.57.31,2.36.52,3.93.08,1.89.12,2.83.19,4.72.16,1.04.23,1.56.39,2.61v3.67c.13-.32.19-.49.32-.81v1.57c.1,0,.16-.01.26-.02.39,4.58.58,6.87.97,11.43v5.49c.29-.03.43-.05.71-.08.23,2.48.35,3.72.58,6.19v1.56c.13,1.02.2,1.54.33,2.56,0,2.81,0,4.21,0,7.02.23-1.29.35-1.93.58-3.21.34,3.07.51,4.59.85,7.65.13,2.98.19,4.47.32,7.45.29-.05.43-.08.72-.14,0,1.45,0,2.17,0,3.62.13-.34.19-.51.32-.84-.08.84-.12,1.27-.19,2.11.13.59.2.89.33,1.48-.05.73-.08,1.1-.13,1.84.16-.24.23-.36.39-.6-.1,1.26-.16,1.89-.26,3.15-.26.68-.39,1.02-.65,1.7-.08-2.78-.12-4.16-.2-6.94-.21.04-.31.06-.52.11.08.61.12.91.19,1.52-.08.33-.12.49-.19.82-.13,1.89-.2,2.84-.33,4.74-.23.57-.35.86-.58,1.43-.21-.68-.31-1.02-.52-1.7v-2.08c-.05.01-.08.02-.13.03v2.08c-.13.65-.2.98-.33,1.64-.65.15-.97.22-1.62.37-.05-1.45-.08-2.18-.13-3.63.05-1.16.08-1.74.13-2.9-.21-.79-.31-1.19-.52-1.98,0,1.68,0,2.51,0,4.19-.16.87-.23,1.31-.39,2.18-.05-.51-.08-.77-.13-1.28-.18.04-.27.06-.45.1-.26-1.94-.39-2.91-.65-4.85-.42-4.23-.62-6.35-1.04-10.6v-5.01c-.29-.8-.43-1.2-.71-2-.26-2.81-.39-4.22-.65-7.05v-2.12c-.23-1.35-.35-2.02-.58-3.37-.34-3.67-.51-5.51-.84-9.2-.08-2.97-.12-4.45-.2-7.42-.21-.3-.31-.45-.52-.75-.7-6.55-1.05-9.84-1.75-16.45-.08,0-.12,0-.2,0-.08.65-.12.97-.19,1.61-.05-.43-.08-.64-.13-1.07-.52.98-.78,1.47-1.3,2.46v1.07c-.29,1.52-.43,2.28-.71,3.8-.83,6.83-1.25,10.26-2.08,17.17-.13,2.07-.2,3.1-.33,5.18v2.98c-.21,2.95-.31,4.43-.52,7.39.13.2.2.3.33.5-.13.99-.2,1.49-.33,2.48-.08-.31-.12-.47-.2-.79v1.36c.21.94.31,1.42.52,2.36,0,4.45,0,6.67,0,11.11-.08.56-.12.83-.2,1.39.08.2.12.31.2.51v4.6c-.08.99-.12,1.49-.2,2.48.08.52.12.79.2,1.31-.08,1.75-.12,2.63-.2,4.38-.13.03-.2.04-.33.07-.05-.31-.08-.47-.13-.79-.16.36-.23.54-.39.9v-2.45c-.13.03-.2.04-.33.07-.08,1-.12,1.5-.2,2.49v4.35c-.57.13-.86.2-1.43.33-.08-.31-.12-.46-.2-.77-.29.39-.43.59-.71.98-.47.11-.7.16-1.17.27-.29-1.14-.43-1.71-.71-2.86l-.58.13v-4.4c.18-.81.27-1.21.45-2.02-.18-.73-.27-1.1-.45-1.83v-1.38c.13-.47.19-.7.32-1.16-.16-.63-.23-.94-.39-1.57.1-2.22.16-3.34.26-5.56-.1-.97-.16-1.46-.26-2.44.1-1.45.16-2.17.26-3.62v-7.98c.08-.01.12-.02.2-.03.08-.45.12-.68.2-1.13-.16-.53-.23-.79-.39-1.33v-2.2c.08-.34.12-.51.2-.85-.08-.21-.12-.32-.2-.53v-9.91c.16-1.12.23-1.67.39-2.79,0-15.95,0-31.9,0-47.85.11-14.38.22-28.76.32-43.14.21-3.6.31-5.4.52-8.98-.16-.68-.23-1.02-.39-1.71.23-1.06.35-1.59.58-2.65-.13-.9-.2-1.35-.33-2.26-.1-1.56-.16-2.33-.26-3.89.23.04.35.06.58.11.05-.21.08-.31.13-.52-.05-.34-.08-.51-.13-.85-.13-.02-.2-.04-.33-.06.18-1.39.27-2.09.45-3.48.36-.37.55-.55.91-.92ZM83.25,413.26c.08,0,.12,0,.19-.01v-1.92c-.08.22-.12.34-.19.56v1.37ZM83.25,477.59c.13-.36.2-.54.33-.9-.13.03-.2.04-.33.07v.83ZM83.84,350.91c0-.33,0-.49,0-.82-.1-.01-.16-.02-.26-.03.1.34.16.51.26.85ZM83.58,365.72c.16.01.23.02.39.03v-.82c-.05,0-.08,0-.13,0-.1.32-.16.48-.26.81ZM83.58,390.17c.1-.22.16-.33.26-.55-.1,0-.16,0-.26,0v.55ZM83.58,408.85c.23-.01.35-.02.58-.03.05-.55.08-.83.13-1.38-.13.33-.2.5-.33.84-.16-.54-.23-.81-.39-1.35v1.92ZM83.58,479.72c.1-.02.16-.03.26-.06.18-.92.27-1.38.45-2.29-.29.06-.43.09-.71.16v2.2ZM85.33,319.89c-.05.21-.08.32-.13.53.21.04.31.06.52.09-.05-1.76-.08-2.64-.13-4.4-.18.73-.27,1.1-.45,1.83.08.78.12,1.17.2,1.95ZM85.72,409.57v-1.37c-.16.55-.23.83-.39,1.39.16,0,.23-.01.39-.02ZM86.43,321.72c.08-.42.12-.63.2-1.05-.08-.01-.12-.02-.2-.04v1.09ZM88.58,317.49c-.13.84-.2,1.26-.33,2.11.18.03.27.05.45.08v-3.52c-.13-.03-.2-.04-.33-.06.08.56.12.84.2,1.39ZM97.94,433.35c.16-.44.23-.66.39-1.1-.16-.3-.23-.45-.39-.75v1.85ZM100.86,469.28c.16.6.23.9.39,1.5.08-.02.12-.02.19-.04,0-1.15,0-1.73,0-2.88-.23-.79-.35-1.19-.58-1.98v3.41ZM101.45,423.79c.21-.02.31-.03.52-.04v-.79c-.16.01-.23.02-.39.03-.05.32-.08.48-.13.8ZM103.85,340.96c.1.01.16.02.26.03v-1.3c-.1.51-.16.76-.26,1.26Z"/>
        <path class="cls-1" d="M111.19,314.87c.16.03.23.05.39.08v.77c-.18.67-.27,1.01-.45,1.69.18.75.27,1.13.45,1.88.21-.37.31-.55.52-.92.42-1.55.62-2.32,1.04-3.86.23.05.35.07.59.12.13.64.19.95.32,1.59.08-.8.12-1.2.2-1.99.23.96.35,1.44.58,2.4-.18.67-.27,1.01-.45,1.68.21.45.31.67.52,1.11v1.01c.18-.27.27-.4.45-.67-.18,1.38-.27,2.07-.45,3.45,0,4.15,0,6.22,0,10.37.23.04.35.06.58.09.05-.9.08-1.35.13-2.25.1-.29.16-.43.26-.71-.1-3.55-.16-5.32-.26-8.88-.05-.21-.08-.32-.13-.53.18-.27.27-.4.45-.67.08-.79.12-1.19.19-1.98.08.22.12.32.2.54v5.04c-.08.19-.12.28-.2.46.08.32.12.48.2.79,0,2.92,0,4.39,0,7.31-.08,2.3-.12,3.46-.2,5.76,0,7.26,0,10.89,0,18.15-.11,10.59-.22,21.17-.32,31.76-.08-.4-.12-.61-.2-1.01-.05-2.32-.08-3.49-.13-5.81-.16.2-.23.3-.39.5-.08,1.41-.12,2.12-.19,3.54.13,1.11.19,1.67.32,2.78v3.28c-.08.81-.12,1.22-.19,2.03.08,0,.12,0,.19,0,.1.81.16,1.21.26,2.02.13-.2.2-.31.33-.51,0,8.17,0,12.26,0,20.44-.18.72-.27,1.08-.45,1.8.1.3.16.44.26.74-.05,2.83-.08,4.25-.13,7.08v12.88c-.1.32-.16.48-.26.79-.05-.9-.08-1.36-.13-2.26-.21,1.24-.31,1.86-.52,3.11.36-.05.55-.07.91-.12v4.8c-.26.04-.39.06-.65.1-.1,1.33-.16,2-.26,3.33.08-.01.12-.02.2-.03v2.27c.05.19.08.29.13.49-.18.43-.27.65-.45,1.09.13.38.2.57.33.96.1.89.16,1.34.26,2.23.08-.01.12-.02.19-.03v2.78c-.13.02-.19.04-.32.06v16.44c.1,1.29.16,1.94.26,3.23-.1.02-.16.04-.26.06.08.49.12.73.19,1.22-.16,2.57-.23,3.85-.39,6.42-.21.05-.31.08-.52.13-.13-.78-.2-1.17-.33-1.94v-4.31c-.21.96-.31,1.45-.52,2.41v4.82c-.91.44-1.36.66-2.27,1.1-.44-.7-.66-1.05-1.1-1.76-.13.34-.2.51-.33.85-.08-.6-.12-.89-.2-1.49-.16.35-.23.52-.39.87-.05-4.71-.08-7.07-.13-11.79.34-.08.51-.11.84-.19,0,1.95,0,2.93,0,4.88.23,1.07.35,1.61.58,2.68.16-2.19.23-3.28.39-5.47-.13-.99-.2-1.49-.33-2.49.18-1.58.27-2.36.45-3.94-.08.02-.12.02-.2.04-.21-.88-.31-1.32-.52-2.2-.34.69-.51,1.03-.85,1.72.26.36.39.53.65.89v3.33c-.36-.33-.55-.49-.91-.82,0-4.11,0-6.17,0-10.28.1-.22.16-.34.26-.56,0-8.11,0-12.17,0-20.29.13,2.14.2,3.21.33,5.34l.52-.08v-5.38c-.08.01-.12.02-.2.03v-.77c.29-.86.43-1.29.71-2.15-.29-.47-.43-.71-.71-1.19v1.79c-.08.01-.12.02-.2.03-.13-.7-.2-1.05-.33-1.76-.05-1.43-.08-2.15-.13-3.58.05-.62.08-.93.13-1.56-.08-1.74-.12-2.6-.19-4.34.08-2.68.12-4.02.19-6.7,0-7.19,0-10.78,0-17.97.08-5.14.12-7.7.2-12.84.29.31.43.46.71.77.05-.31.08-.46.13-.76-.13-.51-.19-.77-.32-1.29-.21,0-.31,0-.52,0,0-2.46,0-3.7,0-6.16.13-.51.2-.76.33-1.27.08.51.12.77.2,1.28v2.82c.08.51.12.77.19,1.28.05-4.92.08-7.38.13-12.29-.16,0-.23-.01-.39-.02-.13,2.35-.2,3.53-.33,5.89-.05-1.23-.08-1.85-.13-3.08.05-4.52.08-6.77.13-11.28.16-.3.23-.45.39-.74-.16-.32-.23-.47-.39-.79v-1.29c.16-.3.23-.44.39-.74v-.77c-.18-.32-.27-.48-.45-.8.18-1.53.27-2.29.45-3.81.21-.9.31-1.35.52-2.25-.13-.01-.2-.02-.33-.03-.26-1.05-.39-1.58-.65-2.63.1-4.5.16-6.75.26-11.25.08.01.12.02.2.03.08.52.12.78.19,1.3.16-2.03.23-3.04.39-5.07-.1-.73-.16-1.1-.26-1.83v-5.37c-.21-.96-.31-1.44-.52-2.4,0-1.13,0-1.69,0-2.82.16-.49.23-.73.39-1.21v-2.05c-.08-.32-.12-.48-.19-.81v-1.79c.18-1.19.27-1.79.45-2.98.23-.46.35-.69.58-1.16ZM109.43,465.71c.08-.02.12-.02.2-.04.13-1.15.2-1.73.33-2.88-.21.45-.31.68-.52,1.13v1.8ZM109.76,433.58v.77c.08-.63.12-.94.2-1.56-.08.32-.12.48-.2.79ZM109.96,371.77c.08,0,.12,0,.2.01v1.28c.13-1.63.19-2.45.32-4.08-.05-.62-.08-.92-.13-1.54-.16-.01-.23-.02-.39-.03,0,1.74,0,2.61,0,4.35ZM109.96,395.36v1.29c.16.31.23.46.39.76v-1.54c.13-.21.2-.31.33-.52v-1.53c-.1-.41-.16-.62-.26-1.03-.18,1.03-.27,1.54-.45,2.57ZM109.96,409.2c.16.3.23.45.39.75v-2.3c-.16.62-.23.93-.39,1.55ZM110.34,345.93c.18-.69.27-1.04.45-1.73-.13-.32-.2-.49-.33-.81-.05.2-.08.3-.13.5v2.05ZM110.8,482.82c-.18-.26-.27-.39-.45-.65,0,1.02,0,1.53,0,2.56.18-.76.27-1.14.45-1.91ZM110.99,438.55c.08.71.12,1.06.2,1.76v3.58c.21-.03.31-.04.52-.07v-4.34c-.13-.29-.2-.43-.33-.72v-1.79c-.08-.4-.12-.6-.19-1-.08,1.03-.12,1.55-.2,2.58ZM111.25,395.86c.13,0,.2,0,.33,0,.05-1.12.08-1.69.13-2.81-.26,0-.39,0-.65,0,.08,1.12.12,1.69.2,2.81ZM111.19,388.45c.08,1.02.12,1.53.19,2.55v-3.57c-.08.41-.12.61-.19,1.02ZM111.58,323.62c.05.42.08.63.13,1.04.08-.8.12-1.2.2-2-.08-.63-.12-.94-.2-1.57-.05,1.01-.08,1.52-.13,2.53ZM111.71,406.31c.08-.61.12-.92.2-1.53-.08,0-.12,0-.2,0v1.53ZM111.71,485.15c.16-.04.23-.06.39-.1,0-1.32,0-1.99,0-3.31-.08-.29-.12-.43-.2-.72-.08,1.65-.12,2.48-.2,4.13ZM112.29,320.7v-.77c-.16-.03-.23-.05-.39-.08.16.34.23.5.39.84ZM111.9,334.39c.08.22.12.33.2.54v-1.28c-.08.29-.12.44-.2.74ZM112.29,443.74c.13-.02.2-.03.33-.05v-4.33c-.13,1.75-.2,2.62-.33,4.37ZM113.07,320.09c.16-.17.23-.26.39-.43v1.27c-.13.48-.2.72-.33,1.21v1.53c.13,1.14.2,1.71.33,2.85.16-2.21.23-3.31.39-5.51v-3.55c-.18-.75-.27-1.12-.45-1.87-.13,1.8-.2,2.7-.33,4.51ZM113.72,396.59v2.79c.13-.61.19-.92.32-1.53,0-1.01,0-1.52,0-2.54-.13,0-.19,0-.32,0-.16.51-.23.77-.39,1.28.16,0,.23,0,.39,0ZM113.33,426.32c.08,0,.12-.01.2-.02-.08-.3-.12-.45-.2-.74v.76ZM113.46,428.84c.1-.52.16-.78.26-1.29-.16.32-.23.48-.39.8.05.2.08.29.13.49ZM114.37,398.1c.13,2.53.2,3.79.33,6.32-.21-.6-.31-.9-.52-1.5-.05.51-.08.76-.13,1.27-.13-.5-.19-.75-.32-1.25.13-.31.19-.46.32-.77-.13,0-.19,0-.32,0-.1,1.02-.16,1.53-.26,2.55.16.6.23.9.39,1.5v2.03c.13.6.2.9.33,1.5.16,0,.23-.01.39-.02v1.77c-.13,1.43-.2,2.14-.33,3.57.26-.02.39-.03.65-.04v-2.53c.13-1.73.19-2.59.32-4.31-.18-.5-.27-.75-.45-1.25-.16,0-.23.01-.39.02.29-.82.43-1.23.71-2.05v-4.8c.16-.61.23-.92.39-1.53-.26-1.21-.39-1.81-.65-3.02-.18,1.01-.27,1.52-.45,2.53ZM113.72,473.47c.05-.22.08-.32.13-.54-.05.01-.08.02-.13.03v.51ZM113.85,415.1c.08,0,.12,0,.19-.01-.08-.5-.12-.75-.19-1.25v1.27ZM114.57,442.4c.08.59.12.89.2,1.49.18-.23.27-.34.45-.57-.13-.99-.19-1.49-.32-2.48-.21.43-.31.65-.52,1.08.08.19.12.29.2.48ZM114.57,424.68c.08,0,.12-.01.2-.02v-.76c-.08.31-.12.47-.2.78ZM114.57,431.51c.08-.21.12-.31.2-.52-.08,0-.12.01-.2.02v.5ZM114.89,349.78c.23-.68.35-1.02.58-1.7v-2.28c-.16.59-.23.88-.39,1.47-.08,1-.12,1.5-.19,2.51ZM114.89,362.93c.08,0,.12,0,.19.02.1,1.02.16,1.53.26,2.55.13-1.51.19-2.26.32-3.76-.31-.03-.47-.04-.78-.06v1.26ZM115.09,338.93c.05,1.42.08,2.13.13,3.55.1.01.16.02.26.03.13-.49.2-.73.33-1.22-.13-.62-.2-.94-.33-1.56v-3.54c-.1-.02-.16-.02-.26-.04-.05,1.11-.08,1.66-.13,2.77ZM115.48,378.13v-1.52c-.1,0-.16,0-.26-.01.1.61.16.92.26,1.53ZM122.5,323.16c.13.62.19.93.32,1.55.23.04.35.07.58.11v-1.48c-.1-.02-.16-.03-.26-.05v-.49c.29.05.43.08.71.14.26.94.39,1.4.65,2.34.16-.66.23-.99.39-1.65v2.7c.16-1.15.23-1.73.39-2.87.21,1.22.31,1.83.52,3.04.23.04.35.06.58.11-.16-.81-.23-1.22-.39-2.03.08-.28.12-.42.2-.7,1.25.24,1.87.36,3.12.6.23.63.35.94.58,1.57v1.21c.26.05.39.07.65.12.55,5.13.82,7.69,1.36,12.79,1.2,14.81,2.42,29.62,3.64,44.43-.29.57-.43.85-.72,1.42v1.67c.23-.86.35-1.29.58-2.14.13.38.2.58.33.96.42,4.97.62,7.44,1.04,12.38.05,1.52.08,2.28.13,3.8.08.28.12.42.2.71.21,2.65.31,3.98.52,6.62-.05.67-.08,1-.13,1.67-.1,0-.16,0-.26.02v-1.43c-.05,1.05-.08,1.57-.13,2.62.34-.02.51-.03.84-.05v3.79c-.13.86-.19,1.29-.32,2.16.08,0,.12,0,.19-.02.1.75.16,1.13.26,1.88.23-.02.35-.03.59-.05.42,4.6.62,6.89,1.04,11.45.29,2.04.43,3.06.71,5.09v1.17c.08-.29.12-.44.19-.73.16-.02.23-.03.39-.05.13-1.05.2-1.58.33-2.62.23-5.57.35-8.34.58-13.89.05-3.38.08-5.06.13-8.44.13,1.86.2,2.8.33,4.66.08,0,.12,0,.19-.02.08-.85.12-1.27.2-2.12,0-1.49,0-2.24,0-3.73-.21-.36-.31-.54-.52-.9,0-4.21,0-6.32,0-10.53.17-11.99.35-23.98.52-35.98.08-.27.12-.41.2-.69.05-2.8.08-4.19.13-6.99.08.29.12.43.2.72v1.17c.26-.91.39-1.36.65-2.26-.21-1.14-.31-1.71-.52-2.85-.13.36-.2.54-.33.9-.05-.38-.08-.57-.13-.95.05-.93.08-1.39.13-2.32.08.29.12.43.2.72.16.02.23.03.39.05v-5.82c-.1-.2-.16-.3-.26-.5v-.7c-.18-.03-.27-.04-.45-.06.13-2.32.2-3.47.33-5.78v-4.9c.31-1.53.47-2.3.78-3.82.31-.13.47-.19.78-.32.08.2.12.3.2.5-.13.44-.2.66-.33,1.1.31-.13.47-.2.78-.33.1-.72.16-1.08.26-1.8.05.29.08.43.13.72.16.03.23.04.39.07.26.51.39.76.65,1.27.1-.44.16-.66.26-1.1.42.26.62.39,1.04.65.36,1.35.55,2.03.91,3.37v2.98c-.16.43-.23.65-.39,1.09-.08.81-.12,1.22-.2,2.03.08.2.12.29.2.49-.13,1.36-.2,2.03-.33,3.39.13.48.2.72.33,1.19-.08,1.46-.12,2.19-.2,3.65-.05,7.25-.08,10.87-.13,18.12-.16.91-.23,1.36-.39,2.27v8.27c-.24,10.97-.48,21.94-.72,32.91-.05-3.22-.08-4.83-.13-8.06-.16,0-.23,0-.39.01v4.39c-.1,1.11-.16,1.67-.26,2.78.16.64.23.96.39,1.59.21-.01.31-.02.52-.03-.21,9.04-.31,13.56-.52,22.63-.18,2.7-.27,4.05-.45,6.76,0,10.81,0,16.21,0,27.02-.42,3.33-.62,5-1.04,8.34-.7-.56-1.05-.85-1.75-1.42-.1-1-.16-1.5-.26-2.5-.05.01-.08.02-.13.03v2.1c-.7.17-1.05.26-1.76.43.1-.4.16-.6.26-1.01-.13-.53-.2-.79-.33-1.32-.18.7-.27,1.05-.45,1.75-1.14.28-1.72.42-2.86.7-.13-.54-.2-.81-.33-1.34v-4.26c-.08-.84-.12-1.25-.19-2.09-.21.9-.31,1.35-.52,2.26-.31-1.16-.47-1.75-.78-2.92-.88-8.47-1.33-12.73-2.21-21.31v-1.91c-.16-.94-.23-1.4-.39-2.34-.26-3.61-.39-5.42-.65-9.04-.16-1.04-.23-1.56-.39-2.6.29-.51.43-.77.71-1.28v-3.36c-.21.31-.31.46-.52.77-.08,1.07-.12,1.6-.2,2.67-.36-3.43-.55-5.15-.91-8.59-.05-.86-.08-1.29-.13-2.16v-6.52c.08-1.36.12-2.03.19-3.39-.18.78-.27,1.17-.45,1.96-.13-.38-.2-.57-.33-.95.1-.58.16-.88.26-1.46-.16,0-.23.01-.39.02v-1.21c-.21-.38-.31-.57-.52-.95v-2.9c-.21-.77-.31-1.15-.52-1.92.05-1.65.08-2.48.13-4.13-.18,0-.27,0-.45,0v-2.67c.13-.2.2-.29.33-.49v-.73c-.13-.29-.2-.44-.33-.73-.16.29-.23.44-.39.73v-3.16c-.08,0-.12,0-.19,0-.13-1.95-.2-2.92-.33-4.87-.44-3.12-.66-4.69-1.11-7.84v-2.68c-.26-.5-.39-.75-.65-1.25v-1.47c-.1,0-.16,0-.26-.02-.18,1.07-.27,1.6-.45,2.67-.44.86-.66,1.29-1.11,2.15-.21-.4-.31-.6-.52-1.01-.08.39-.12.59-.2.98.08.69.12,1.04.2,1.73.44-.47.66-.71,1.1-1.18.13,1.38.2,2.07.33,3.45-.16,0-.23,0-.39-.01.08.69.12,1.03.2,1.72-.21,4.31-.31,6.47-.52,10.79.08.89.12,1.33.19,2.21-.3,15.68-.61,31.35-.91,47.03,0,5.71,0,8.57,0,14.28-.13.51-.2.77-.33,1.29.08.87.12,1.31.19,2.18,0,2.26,0,3.4,0,5.66-.08.41-.12.61-.19,1.03,0,1.58,0,2.37,0,3.95-.08,2.68-.12,4.02-.2,6.7-.21.05-.31.07-.52.12-.29.56-.43.84-.71,1.41-.21.05-.31.08-.52.13v-.74c.16-.53.23-.8.39-1.33-.08-1.27-.12-1.9-.19-3.17-.1.32-.16.48-.26.8-.1-.27-.16-.41-.26-.68v-2.23c-.13.53-.2.79-.33,1.32v1.49c.13.47.2.7.33,1.16-.1,1.41-.16,2.12-.26,3.54-.18.04-.27.07-.45.11-.1-.67-.16-1.01-.26-1.68-.23.95-.35,1.43-.58,2.38-.31-.52-.47-.78-.78-1.3v-1.75c.23-1.95.35-2.93.58-4.88-.16-.56-.23-.84-.39-1.41.08-.72.12-1.07.2-1.79-.21-.26-.31-.38-.52-.64-.08.32-.12.47-.2.79v2.75c.23.65.35.97.58,1.62-.36.68-.55,1.02-.91,1.71-.1-.38-.16-.57-.26-.95.13-1.43.2-2.15.33-3.57-.13-.47-.2-.71-.33-1.18.18-8.35.27-12.51.45-20.84.18-.83.27-1.24.45-2.07-.16-.28-.23-.41-.39-.69.16-1.32.23-1.98.39-3.3-.05-.79-.08-1.19-.13-1.98-.13-.48-.2-.73-.33-1.21.42-2.25.62-3.38,1.04-5.62-.13.01-.2.02-.33.04.05-.8.08-1.21.13-2.01-.05-1.39-.08-2.09-.13-3.48.05-.8.08-1.2.13-2.01-.16.01-.23.02-.39.04v-2.75c.65-2.25.97-3.38,1.62-5.61-.21.01-.31.02-.52.04-.16.31-.23.47-.39.78-.13-.49-.2-.73-.33-1.22-.08-1.19-.12-1.79-.2-2.98.1-1.51.16-2.26.26-3.76-.1-1.69-.16-2.54-.26-4.23.1-2.4.16-3.6.26-5.99.26,0,.39,0,.65-.01.08-.8.12-1.2.2-1.99-.29-.29-.43-.44-.71-.74v-2.74c.13.6.2.89.33,1.49.16-1.1.23-1.65.39-2.74-.16.2-.23.3-.39.5-.13-.2-.2-.3-.33-.5.21-.9.31-1.34.52-2.24.08-1,.12-1.49.2-2.49-.16-.6-.23-.9-.39-1.5-.08,0-.12,0-.2,0v-1.24c.23-.59.35-.89.58-1.48v-1.24c-.23-.21-.35-.31-.58-.52.23-2.09.35-3.13.58-5.21-.08-.6-.12-.9-.2-1.5v-15.18c.21-1.27.31-1.91.52-3.18-.13-.81-.2-1.21-.33-2.03,0-3.48,0-5.22,0-8.7.05-2.18.08-3.28.13-5.46.08-1.08.12-1.62.2-2.71,0-3.48,0-5.22,0-8.7.16-1.56.23-2.34.39-3.9.05,0,.08.01.13.02,0,1.09,0,1.64,0,2.73.13.02.2.03.33.06v-4.96c.16.03.23.04.39.07ZM119.31,456.97c.13-.02.2-.04.33-.06-.05-.29-.08-.44-.13-.73-.08.31-.12.47-.2.79ZM120.03,443.87c-.08,1.11-.12,1.66-.2,2.77.29-.04.43-.07.72-.11v-3.49c-.08-.78-.12-1.18-.2-1.96-.18.23-.27.34-.45.56.05.89.08,1.33.13,2.22ZM120.03,464.82c.08-.82.12-1.22.2-2.04-.08.02-.12.02-.2.04v2ZM120.35,451.3c.08-.01.12-.02.2-.03v-1.5c.16-.23.23-.34.39-.56v-.99c-.34.75-.51,1.13-.84,1.88.1.48.16.72.26,1.21ZM120.74,457.95c.21-1.13.31-1.7.52-2.83-.34.66-.51.99-.84,1.65.13.47.19.71.32,1.18ZM120.55,460.73c.16-.33.23-.49.39-.82-.08-.58-.12-.87-.2-1.45-.08.01-.12.02-.19.04v2.24ZM120.74,473.38v1.24c.08.28.12.42.2.7.13-.03.2-.05.33-.08-.08-1.37-.12-2.06-.2-3.43-.13.63-.2.94-.33,1.57ZM121.39,441.44c.16-.02.23-.03.39-.05-.05-2.67-.08-4.01-.13-6.69-.1.41-.16.61-.26,1.02v5.72ZM121.65,386.29c.05-.49.08-.74.13-1.24-.05.3-.08.45-.13.74v.49ZM121.78,332.45v1.24c.13.02.2.03.33.05-.05-1-.08-1.5-.13-2.5-.08.48-.12.72-.2,1.21ZM121.98,379.11v4.46c.13-.2.2-.29.33-.49.08-1.38.12-2.08.2-3.46-.08-.8-.12-1.2-.2-1.99-.13.59-.2.89-.33,1.48ZM121.98,407.88c.13-.5.2-.75.33-1.26.08-1.39.12-2.09.2-3.48-.21-.39-.31-.58-.52-.97v5.71ZM121.98,424.74c.13.29.2.43.33.71.16-.91.23-1.36.39-2.27-.23.02-.35.03-.58.05-.05.6-.08.9-.13,1.5ZM121.98,430.19c.18-.51.27-.77.45-1.29-.18-.58-.27-.86-.45-1.44v2.73ZM121.98,434.16c.08-.41.12-.61.2-1.01-.08-.68-.12-1.03-.2-1.71v2.73ZM122.11,376.38c.16,0,.23,0,.39.02-.08-.3-.12-.45-.2-.75.29-.58.43-.87.71-1.45v-1.23c-.36.38-.55.57-.91.94v2.48ZM122.3,421.98v-.74c-.08,0-.12,0-.2.02.08.29.12.44.2.73ZM123.41,409.29c.13.19.2.29.33.48-.08-.49-.12-.74-.2-1.23-.05.3-.08.45-.13.75ZM124.25,384.36c.08.79.12,1.18.19,1.97.05,0,.08,0,.13,0,.21-1.38.31-2.06.52-3.43-.16-.59-.23-.89-.39-1.48-.34.88-.51,1.31-.85,2.19.16.3.23.45.39.75ZM124.58,397.17c-.05-.79-.08-1.18-.13-1.97-.08.2-.12.3-.19.5.13.59.2.89.33,1.47ZM127.57,330.23c.23-.25.35-.38.58-.62-.1-.6-.16-.91-.26-1.51-.23.44-.35.67-.58,1.11.1.41.16.61.26,1.02ZM129.91,330.63c.05-.47.08-.71.13-1.19-.05.19-.08.28-.13.46v.72ZM130.75,402.38c-.05.19-.08.29-.13.49.18.38.27.57.45.95.29-.59.43-.88.71-1.47v-2.17c-.42.01-.62.02-1.04.03v2.18ZM131.47,343.94c.08.3.12.45.2.75v-1.2c-.08.18-.12.28-.2.46ZM133.94,383.82c.16,0,.23,0,.39,0-.16-.67-.23-1.01-.39-1.69v1.68ZM134.65,391.01c.16.29.23.43.39.72.1-.38.16-.57.26-.95-.18-.67-.27-1-.45-1.67-.08.76-.12,1.15-.19,1.91ZM135.76,396.26v.72c.05-.77.08-1.15.13-1.91-.05.48-.08.72-.13,1.2ZM136.41,459.55c.18-.04.27-.05.45-.09-.1-.26-.16-.39-.26-.66-.08.3-.12.45-.2.75ZM136.92,418.81c.08-.29.12-.43.2-.72-.08-.18-.12-.28-.2-.46-.13.2-.19.3-.32.5.13.27.19.41.32.68ZM136.6,424.79c.08-.58.12-.87.19-1.44-.08,0-.12.01-.19.02v1.42ZM136.92,457.54c.08-.02.12-.02.2-.04-.08-.27-.12-.41-.2-.68v.71ZM142.38,408.79c.08-.19.12-.29.19-.48-.08,0-.12,0-.19,0v.47ZM143.42,398.71c-.13,1.03-.2,1.54-.33,2.57.08.28.12.42.2.69.16-.57.23-.85.39-1.41v-1.86c.26-.57.39-.85.65-1.41-.13-.46-.19-.69-.32-1.16-.29.47-.43.7-.71,1.17.05.56.08.84.13,1.4ZM143.1,408.28v1.63c.13-.19.2-.29.33-.48v-2.56c-.13.56-.2.85-.33,1.41ZM144.85,457.86c.13-.77.2-1.15.33-1.92-.21.41-.31.62-.52,1.03.08.36.12.53.2.89ZM144.85,360.85c.23-.17.35-.25.58-.41.13.2.2.3.33.5.13-.17.2-.26.33-.44-.08-.38-.12-.57-.2-.94.08-.45.12-.68.2-1.14-.13-.48-.2-.71-.33-1.19-.13-.01-.2-.02-.33-.03-.23,1.46-.35,2.19-.58,3.66ZM145.44,462.15c.05.17.08.26.13.43.08-.2.12-.3.2-.5-.13-.81-.2-1.21-.33-2.02-.16.59-.23.88-.39,1.47.16.25.23.37.39.61ZM145.18,469.62c.23.5.35.75.58,1.25.05-1.03.08-1.55.13-2.58-.13.22-.2.32-.33.54v-.47c-.16.22-.23.33-.39.56v.7ZM145.44,340.05c.13.02.2.03.33.05v-2.55c-.13-.02-.2-.03-.33-.05v2.55ZM146.61,394.94c.08.18.12.28.2.46-.13-.46-.2-.69-.33-1.15.05.28.08.42.13.69ZM146.61,401.87c.13-.28.2-.42.33-.7-.13,0-.2,0-.33,0v.69ZM146.93,360.57c.13-.82.2-1.23.33-2.04-.13-.01-.2-.02-.33-.03-.05.27-.08.41-.13.68.05.56.08.84.13,1.39ZM146.8,412.94c.05.27.08.41.13.68-.05-.55-.08-.83-.13-1.38v.69ZM146.93,391.02c.1.28.16.42.26.69-.1-.55-.16-.83-.26-1.38v.69ZM148.23,338.87c.08.2.12.29.2.49v-1.84c-.08.54-.12.81-.2,1.35Z"/>
        <path class="cls-1" d="M156.94,323.7v2.01c-.08-.02-.12-.02-.19-.04v1.12c.21.04.31.06.52.1v-3.13c.08-.43.12-.65.2-1.08-.1-.74-.16-1.1-.26-1.84.16-.23.23-.35.39-.58v-.67c.1-.15.16-.23.26-.39.05.19.08.28.13.47.1-.6.16-.9.26-1.5.6-.93.9-1.4,1.49-2.32.21.05.31.07.52.12.49-.59.82-.81,1.48-1.23-.02.36-.13.44-.05.9.08.02.12.03.19.05,0-.62.2-.72.35-1.19.6-.21.9-.32,1.5-.53-.21.67-.32,1-.53,1.67.18.04.27.07.46.11.36-.7.54-1.05.91-1.75.66.17.98.25,1.64.42.22-.16.33-.23.56-.39.02.36.03.54.06.9-.25.57-.37.86-.62,1.43.03.5.18.88.36,1.53.16-.83.27-1.21.65-1.82.13-.39.2-.58.33-.97.36-.54.53-.81.89-1.35.06.51.08.76.14,1.26-.6,1.73-.71,2.79-.71,5.12.13.55.2.82.33,1.37.08-.24.12-.36.2-.6v-3.67c.26-1.32.91-1.45,1.54-2.4-.1.6-.15.9-.24,1.49.32-.26.48-.4.81-.66.14.65.2.98.33,1.62-.32.88-.16,1.64-.16,2.84.1.45.16.68.26,1.13-.1.32-.16.48-.26.8.23.05.35.08.59.13.18-.73.27-1.09.45-1.82v2.35c.1.71.16,1.06.26,1.77.18-.64.27-.97.45-1.61-.05-.18-.08-.27-.13-.45v-1.92c.05-.67.08-1,.13-1.67.1-.23.16-.35.26-.58.83,2.07,1.25,3.1,2.08,5.14.13.03.2.04.33.07.16,1.05.23,1.57.39,2.62v2.11c-.16.22-.23.33-.39.55-.08-.52-.12-.78-.2-1.31v-2.32c-.13-.03-.2-.04-.33-.07v1.9c-.18.22-.27.32-.45.54.18.72.27,1.07.45,1.79v2.33c.21.04.31.06.52.1.05.43.08.65.13,1.08.23.21.35.32.59.53.05-.16.08-.24.13-.39v-2.95c.23-.37.35-.56.59-.93v.63c.21.63.31.95.52,1.57.16,1.12.23,1.68.39,2.8-.08.32-.12.48-.2.8v6.29c.26.63.39.94.65,1.57-.05-.59-.08-.89-.13-1.49,0-1.34,0-2.01,0-3.35.16-.48.23-.71.39-1.19.29,2.98.43,4.46.71,7.43-.16.39-.23.59-.39.99.21.28.31.42.52.7v1.88c.13.02.2.03.33.05.23,4.28.35,6.41.58,10.68,0,1.33,0,2,0,3.33.13.43.2.64.33,1.07,0,5.98,0,8.96,0,14.94.05.58.08.87.13,1.46-.1.33-.16.49-.26.82.1.42.16.63.26,1.04-.13.58-.19.86-.32,1.44.21,0,.31,0,.52.02-.13,6.13-.19,9.2-.32,15.35-.08.25-.12.38-.2.63.08.91.12,1.37.2,2.28-.13.42-.2.63-.33,1.05.13,0,.2,0,.33-.01-.08,2.91-.12,4.36-.2,7.28-.16.42-.23.64-.39,1.06,0,2.08,0,3.12,0,5.2-.26,4.1-.39,6.15-.65,10.26-.34,3.12-.51,4.69-.84,7.83-.1.35-.16.52-.26.87v-4.18c-.13-.4-.2-.6-.33-1-.13,4.45-.19,6.68-.32,11.15-.42,1.99-.62,3-1.04,5-.1-.49-.16-.73-.26-1.22-.13,1.45-.19,2.18-.32,3.64-.16.54-.23.8-.39,1.34-.13.02-.19.04-.32.06-.05-.33-.08-.49-.13-.82-.36.57-.55.86-.91,1.44.08.24.12.36.2.6-.23.47-.35.71-.58,1.18v.85c.31-.57.47-.86.78-1.43-.18,1.22-.27,1.83-.45,3.06-.29.74-.43,1.11-.71,1.85-.23-.29-.35-.44-.59-.73-.08.27-.12.41-.19.68v1.06c-.6,1.41-.9,2.11-1.5,3.53-.18-1.24-.27-1.87-.45-3.12.08-.44.12-.67.2-1.11-.23.48-.35.72-.59,1.19v3.01c.1.23.16.35.26.59-.36.51-.55.77-.91,1.28-.23.05-.35.08-.59.13-.57.73-.86,1.1-1.43,1.84v-1.95c-.23-.81-.35-1.22-.59-2.04.1-.89.16-1.34.26-2.23-.21.04-.31.07-.52.11-.13.55-.19.82-.32,1.37-.08.89-.12,1.33-.2,2.22.08-.02.12-.03.2-.04v.87c-.13.64-.2.96-.33,1.6-.29.07-.43.1-.71.17.05-1.41.08-2.11.13-3.52-.21,1.27-.31,1.9-.52,3.17v1.31c-.42-.25-.62-.38-1.04-.63v-1.53c-.26.76-.39,1.14-.65,1.9-.47-.24-.7-.36-1.17-.61-.18-.66-.27-.99-.45-1.66-.08.37-.12.56-.2.93-.29.07-.43.1-.71.16-.08-.78-.12-1.17-.2-1.95-.13.03-.19.04-.32.07-.1.38-.16.57-.26.95-.31-.46-.47-.69-.78-1.16v-1.34c-.36.08-.55.12-.91.2-.62-2.54-.94-3.82-1.56-6.38-.08.55-.12.83-.2,1.38-.18-.59-.27-.88-.45-1.48-.16-1.5-.23-2.25-.39-3.75-.26.05-.39.07-.65.12-.1-1.96-.16-2.94-.26-4.91-.26-.5-.39-.75-.65-1.25-.26-2.4-.39-3.6-.65-6.01-.29-3.31-.43-4.96-.72-8.29.1-.28.16-.43.26-.71-.29-1.96-.43-2.94-.71-4.91.05-3.19.08-4.78.13-7.96-.13-.54-.2-.8-.33-1.34-.05-1.27-.08-1.9-.13-3.17.05,0,.08,0,.13,0,.08.81.12,1.22.2,2.03.18-.74.27-1.11.45-1.84-.31-.52-.47-.79-.78-1.32v-2.5c.08-.28.12-.42.19-.69-.18-.9-.27-1.35-.45-2.25v-2.05c.16-.46.23-.69.39-1.15-.13-.45-.2-.67-.33-1.12-.08-3.73-.12-5.6-.2-9.33.05-1,.08-1.5.13-2.5-.05-.54-.08-.82-.13-1.36.05-.64.08-.96.13-1.59-.08-1.09-.12-1.64-.19-2.74.18-1.18.27-1.77.45-2.94-.1-.46-.16-.69-.26-1.15v-2.28c.23-.26.35-.39.59-.66.05-.81.08-1.22.13-2.03-.13,0-.2-.01-.33-.02v-1.13c-.16,0-.23-.01-.39-.02.1-.72.16-1.09.26-1.81v-7.5c.05-3,.08-4.49.13-7.49.21-.61.31-.92.52-1.53v-4.99c.34-4.13.51-6.19.85-10.3.65-4.33.97-6.49,1.62-10.78.78-2.73,1.17-4.09,1.95-6.79.08.64.12.96.19,1.61ZM152.32,371.97c.08-.45.12-.68.2-1.13-.16.26-.23.39-.39.66.08.19.12.28.19.47ZM152.39,393.29c.18.36.27.54.45.9.1-.36.16-.54.26-.91-.13-.99-.2-1.49-.33-2.49-.16,1-.23,1.5-.39,2.49ZM152.84,352.97c.08,0,.12.01.19.02-.08-.19-.12-.28-.19-.47v.45ZM153.17,434.7c.1-.29.16-.43.26-.71v-1.13c-.1.74-.16,1.11-.26,1.85ZM153.88,438.9c.08-.01.12-.02.2-.03v-.68c-.08.28-.12.42-.2.71ZM154.66,338.54c.13-.43.19-.64.32-1.07-.1-.38-.16-.57-.26-.95-.1.34-.16.52-.26.86.08.46.12.69.2,1.16ZM158.3,346.48c-.16,2.65-.23,3.98-.39,6.64.29.57.43.85.71,1.42-.18,1.32-.27,1.97-.45,3.29v2.89c-.08.53-.12.79-.2,1.32v4.23c-.18,1.06-.27,1.59-.45,2.65.18-.34.27-.52.45-.86-.16,2.22-.23,3.33-.39,5.55.1.27.16.41.26.68v2.45c-.16.44-.23.66-.39,1.1.05,2.86.08,4.29.13,7.15,0,5.09,0,7.63,0,12.72.1,1.52.16,2.27.26,3.79.13,6.69.2,10.03.33,16.7.44,5.4.66,8.09,1.1,13.45.34,2.44.51,3.66.85,6.09-.16.82-.23,1.23-.39,2.05.13.42.2.64.33,1.06.16-.73.23-1.1.39-1.83-.08.54-.12.81-.2,1.35.16-.29.23-.44.39-.72.21.68.31,1.02.52,1.69.13.95.2,1.43.33,2.37.08-.46.12-.68.2-1.14.13.42.19.63.32,1.05-.13.46-.19.69-.32,1.15.29-.31.43-.47.71-.78.29.22.43.32.71.54-.08.28-.12.42-.2.69.21-.04.31-.05.52-.09.18.58.27.87.45,1.45.1-.37.16-.55.26-.92.21-.04.31-.05.52-.09.1.59.16.89.26,1.48.18-.64.27-.96.45-1.61.29-.05.43-.07.71-.12.05.25.08.38.13.63.29-.05.43-.08.71-.13.21-.73.31-1.1.52-1.83.36.37.55.56.91.93-.16.72-.23,1.08-.39,1.79.29-.31.43-.47.71-.78v-3.45c.16-.03.23-.04.39-.06.21-.81.31-1.21.52-2.02.08-.01.12-.02.2-.03.57-1.46.86-2.19,1.43-3.65.34-2.36.51-3.54.85-5.88.13-.44.19-.66.32-1.1v-2.34c.16-1.38.23-2.07.39-3.45.08.42.12.62.2,1.04v-2.34c.29-5.04.43-7.56.71-12.58.13-10.88.26-21.76.39-32.64-.1-.51-.16-.77-.26-1.28v-2.33c.08-.25.12-.38.2-.63-.08-.17-.12-.26-.2-.44v-1.27c.13-.42.2-.62.33-1.04.16-1.43.23-2.14.39-3.57-.08-.94-.12-1.4-.2-2.34.08-.59.12-.88.2-1.46-.1-1.87-.16-2.81-.26-4.68-.18-.95-.27-1.43-.45-2.38-.05.5-.08.75-.13,1.26.05.6.08.9.13,1.5-.18-.02-.27-.03-.45-.05-.16-2.48-.23-3.72-.39-6.2-.42-3.79-.62-5.7-1.04-9.52.34-.46.51-.69.85-1.14-.16-.2-.23-.29-.39-.49.08-.24.12-.36.2-.61v-1.06c-.08-.01-.12-.02-.2-.03-.13.83-.19,1.25-.32,2.08v-1.49c-.21.56-.31.84-.52,1.41-.13-.62-.19-.93-.32-1.55.05-.5.08-.76.13-1.26-.18.23-.27.34-.45.57-.23-1.15-.35-1.73-.59-2.89v-3.65c-.16-.03-.23-.04-.39-.07-.05,1.11-.08,1.66-.13,2.77-.44-.68-.66-1.02-1.11-1.71.08-.5.12-.75.2-1.26v-1.72c-.08-.02-.12-.02-.2-.04v-1.29c-.34,1.14-.51,1.71-.85,2.86-.42-.08-.62-.12-1.04-.2v-3.47c-.16-.03-.23-.05-.39-.08.08.19.12.28.2.47-.29.9-.43,1.35-.71,2.25-.16-.03-.23-.04-.39-.07-.16-.64-.23-.96-.39-1.6-.26.82-.39,1.23-.65,2.06-.34.46-.51.69-.85,1.16v-.66c-.65.75-.97,1.13-1.62,1.9-.7,2.25-1.05,3.38-1.76,5.66-.55,3.54-.82,5.32-1.36,8.89-.08-.01-.12-.02-.2-.03.08-.43.12-.65.2-1.08-.08-.72-.12-1.09-.2-1.81v-2.45c-.21.68-.31,1.02-.52,1.71.05.54.08.81.13,1.35ZM159.73,459.1c.08-.02.12-.02.2-.04v-1.11c-.08.02-.12.02-.2.04v1.11ZM159.93,460.83c.05-.01.08-.02.13-.03v-.67c-.05.01-.08.02-.13.03v.67ZM164.67,328.38c.08.54.12.81.19,1.34.13-.32.2-.48.33-.81-.05-2.54-.08-3.81-.13-6.35-.16-.03-.23-.05-.39-.09v5.9ZM166.95,462.77v1.08c-.21.05-.31.07-.52.12v-1.08c.21-.05.31-.07.52-.12ZM168.57,331.96c.05.27.08.4.13.67-.13.23-.19.35-.32.59v-1.3c.08.01.12.02.19.04ZM168.38,460.71c.13.14.19.22.32.36.13-1.15.19-1.72.32-2.87-.18.04-.27.06-.45.1-.08.97-.12,1.45-.19,2.41ZM168.9,324.7c.16.03.23.05.39.08v-2.58c-.16-.03-.23-.05-.39-.09v2.59ZM169.29,443.52c.05,0,.08-.01.13-.02-.05-.16-.08-.24-.13-.41v.43ZM174.03,360.11v3.39c-.13-.01-.19-.02-.32-.03v-1.27c-.13-.86-.2-1.29-.33-2.15.26.03.39.04.65.07ZM174.09,366.05c-.1.58-.16.88-.26,1.46-.08-1.19-.12-1.79-.2-2.98.18.61.27.91.45,1.52ZM173.83,422.61c.08,0,.12-.01.2-.02.13-.61.19-.91.32-1.51-.08,0-.12.01-.19.02-.13.61-.2.91-.33,1.52ZM173.83,426.22v2.12c.08,0,.12-.01.2-.02.05-1.36.08-2.04.13-3.41-.13.52-.2.78-.33,1.31ZM174.03,414.76c.13-.35.19-.52.32-.87-.08-.42-.12-.63-.19-1.05-.05.26-.08.39-.13.65v1.27ZM174.16,423.43c.23-.53.35-.8.58-1.33-.08,0-.12.01-.2.02-.16.52-.23.79-.39,1.31ZM175.46,335.59c.18-.13.27-.2.45-.33-.05-.26-.08-.39-.13-.66-.13.4-.2.59-.33.99ZM175.91,443.03v-.63c-.05,0-.08.01-.13.02.05.24.08.37.13.61Z"/>
        <path class="cls-1" d="M186.96,338.72c.05.74.08,1.11.13,1.85.23-.69.35-1.03.59-1.72.05-.64.08-.96.13-1.59,1.07-.85,1.6-1.28,2.67-2.11.42-.08.62-.12,1.04-.2v1c.08.17.12.26.2.43-.16.45-.23.67-.39,1.13.08.41.12.62.2,1.03.21-.6.31-.9.52-1.5.1-.78.16-1.17.26-1.94.26-.35.39-.52.65-.86v5.56c.08.33.12.5.2.83.13-.69.2-1.04.33-1.73.16-.13.23-.19.39-.32.18-.68.27-1.02.45-1.7.16-.13.23-.19.39-.32-.34.09-.51.14-.85.23-.16-.58-.23-.88-.39-1.46.57.11.86.17,1.43.28.21.44.31.65.52,1.09.21.04.31.06.52.1.18-.52.27-.77.45-1.29.1.33.16.5.26.84v.98c-.08-.01-.12-.02-.2-.04-.05.46-.08.69-.13,1.15.13.02.2.04.33.06.05.4.08.6.13,1,.08-.38.12-.57.2-.94.08.25.12.37.2.62.21-.2.31-.29.52-.49v-2.15c1.14,1.94,1.72,2.9,2.86,4.81-.08,1.3-.12,1.95-.19,3.26.05,1.4.08,2.1.13,3.5.1.02.16.02.26.04.13-.67.2-1.01.33-1.68-.13-.25-.2-.38-.33-.63.26-.73.39-1.1.65-1.82.57,2.41.86,3.61,1.43,5.99v2.11c-.23-.03-.35-.05-.58-.08-.05.61-.08.91-.13,1.52.36-.64.55-.96.91-1.6.13.71.19,1.06.32,1.77-.08.22-.12.33-.19.54v4.22c-.08.14-.12.21-.2.36.1.55.16.82.26,1.37-.1.52-.16.79-.26,1.31.1,1.01.16,1.51.26,2.52-.1.83-.16,1.25-.26,2.08.16.4.23.6.39.99.08-1.22.12-1.83.2-3.04.13-.37.2-.56.33-.93.05.39.08.58.13.97,0,3.97,0,5.96,0,9.93-.05.38-.08.57-.13.95-.13-.39-.2-.59-.33-.98.05-.22.08-.34.13-.56-.21-.01-.31-.02-.52-.03v2.68c.18.54.27.82.45,1.36-.18.53-.27.79-.45,1.32-.83-.04-1.25-.06-2.08-.09.26-.84.39-1.26.65-2.09-.16-.86-.23-1.28-.39-2.14.1,0,.16,0,.26.02v-2.12c-.1-.85-.16-1.28-.26-2.14.1-1.61.16-2.42.26-4.03-.21.29-.31.43-.52.72v-.38c-.08.15-.12.22-.2.37-.05,1.54-.08,2.31-.13,3.85-.13.22-.19.33-.32.56.16.86.23,1.29.39,2.15-.13.76-.2,1.15-.33,1.91.1.55.16.82.26,1.37-.1.3-.16.46-.26.76.1.16.16.24.26.4-.1.3-.16.46-.26.76-.18-.7-.27-1.06-.45-1.76v-6.2c-.08,0-.12,0-.2-.01-.1-.71-.16-1.06-.26-1.77.31-.6.47-.89.78-1.48-.13-.24-.2-.37-.33-.61-.18-.02-.27-.02-.45-.04-.16-.87-.23-1.3-.39-2.17.18-.76.27-1.14.45-1.9-.29-.03-.43-.04-.71-.07-.16.22-.23.33-.39.55-.18-1.65-.27-2.48-.45-4.14-.39-1.76-.59-2.64-.98-4.42.1-.3.16-.45.26-.75-.08-.4-.12-.6-.2-1v-1.57c-.31.66-.47.99-.78,1.66-.44-.61-.66-.92-1.1-1.53.13-.53.19-.8.32-1.33-.08-.25-.12-.37-.2-.62-.1.61-.16.92-.26,1.54-.91-.76-1.36-1.14-2.27-1.91-.62.78-.94,1.18-1.56,1.97v-1.6c-.21-.03-.31-.05-.52-.08-.08.87-.12,1.3-.2,2.17-.62,2.24-.94,3.36-1.56,5.62-.34-.04-.51-.06-.85-.1-.16,1.11-.23,1.67-.39,2.79.23.19.35.28.59.47.13-.15.19-.22.32-.37v1.61c-.31.45-.47.68-.78,1.13.1.74.16,1.11.26,1.85-.16.47-.23.7-.39,1.17.26.43.39.64.65,1.07-.18.47-.27.7-.46,1.17.34,1.4.51,2.1.85,3.49v1.61c-.18-.01-.27-.02-.45-.03,0,1.62,0,2.42,0,4.04.34-.47.51-.7.84-1.17v-3.42c.42,2.2.62,3.29,1.04,5.48v3.41c.08,0,.12,0,.2,0,.13-.72.19-1.08.32-1.79.21.49.31.73.52,1.22.08,1.28.12,1.92.2,3.2.16.4.23.6.39,1,.21,0,.31,0,.52.01.13-.32.2-.47.33-.79.08.56.12.84.19,1.4.13-.24.2-.35.33-.59.42.96.62,1.44,1.04,2.39-.05,1.03-.08,1.54-.13,2.57.39-.24.58-.35.97-.59.18.4.27.59.45.99.13,0,.19,0,.32,0-.13,1.1-.19,1.65-.32,2.75.18-.63.27-.95.45-1.58.18,0,.27,0,.45,0,.88,1.88,1.33,2.82,2.21,4.67v.58c.08,0,.12,0,.2,0,.16.85.23,1.28.39,2.13v1.17c.13,0,.19,0,.32-.01v-1.17c.08-.24.12-.35.2-.59.31.69.47,1.04.78,1.72.18,2.24.27,3.35.45,5.58.13,0,.19-.01.32-.02v-1.54c.08-.47.12-.7.2-1.17.62,2.75.94,4.11,1.56,6.83v1.53c.08.45.12.68.19,1.14,0,.77,0,1.15,0,1.92.21-.02.31-.03.52-.04-.21.63-.31.94-.52,1.57v.57c.21-.02.31-.03.52-.05.05,5.35.08,8.02.13,13.36-.18.33-.27.5-.45.83.16.44.23.65.39,1.09-.16,1.78-.23,2.67-.39,4.46-.36,2.35-.55,3.54-.91,5.9-.16.03-.23.04-.39.07v1.73c-.05.16-.08.24-.13.41-.21-.42-.31-.63-.52-1.05-.08,1.32-.12,1.99-.2,3.31-.26.67-.39,1.01-.65,1.68.05-.63.08-.95.13-1.58-.16.26-.23.4-.39.66-.16,1.27-.23,1.91-.39,3.18-.36.77-.55,1.16-.91,1.94-.16-.43-.23-.65-.39-1.08-.13.88-.2,1.33-.33,2.21-.39.71-.58,1.07-.97,1.78,0-1.56,0-2.35,0-3.91-.13.03-.19.04-.32.07-.16.89-.23,1.34-.39,2.24v2.35c-.7.48-1.05.71-1.76,1.19-.7.16-1.05.25-1.75.41.08-.41.12-.62.2-1.04-.18-.2-.27-.29-.45-.49-.18.52-.27.78-.45,1.29.16-.04.23-.05.39-.09v1c-.55.13-.82.19-1.36.32-.1-1.09-.16-1.64-.26-2.74-.21.37-.31.55-.52.92-.08.58-.12.87-.2,1.45-.39-.07-.58-.11-.97-.18-.08-1.11-.12-1.66-.2-2.77-.39.89-.58,1.34-.97,2.23-.68-.98-1.01-1.47-1.69-2.45v-.81c.08-.02.12-.03.2-.04v-.61c-.29.06-.43.09-.72.15-.13-.54-.19-.81-.32-1.36-.44-1.05-.66-1.57-1.11-2.63v-1.63c-.26-.36-.39-.54-.65-.9-.39-2.79-.59-4.19-.98-7,.21-.69.31-1.04.52-1.73-.18-.55-.27-.82-.45-1.36v-1.03c-.08.01-.12.02-.2.03-.16-.88-.23-1.32-.39-2.2,0-4.36,0-6.54,0-10.91.29-1.18.43-1.77.71-2.95.49-.29.74-.44,1.23-.73.08.65.12.97.2,1.61.36-.45.55-.67.91-1.11.08-.5.12-.74.2-1.24.34.21.51.32.85.53.39.86.58,1.28.97,2.13.23,4.1.35,6.15.59,10.23.08-.01.12-.02.19-.03.42,2.6.62,3.9,1.04,6.49.29.76.43,1.14.71,1.89.57.79.86,1.18,1.43,1.95v3.19c.13-.02.2-.04.33-.06.08-1.13.12-1.7.19-2.82.29.35.43.52.71.86v1.79c.13-.42.2-.63.33-1.06v-.99c.99-.81,1.48-1.22,2.47-2.02.23-.75.35-1.12.58-1.87.18-.03.27-.05.45-.08.08.46.12.69.2,1.14.16-.03.23-.04.39-.07.05-.63.08-.95.13-1.59.08-.01.12-.02.2-.03-.08-.93-.12-1.39-.2-2.32.13-.41.2-.62.33-1.03.21-1.67.31-2.51.52-4.17-.21-3.95-.31-5.92-.52-9.88-.13.01-.2.02-.33.03-.21-1.31-.31-1.96-.52-3.28-.42-1.29-.62-1.94-1.04-3.24v-3.15c-.13,0-.19.01-.32.02-.1,1.03-.16,1.55-.26,2.58-.68-1.6-1.01-2.41-1.69-4.03-.1,0-.16.01-.26.02-.75-1.22-1.13-1.83-1.88-3.07-.21-.63-.31-.94-.52-1.58v-.6c-.13,0-.19,0-.32.02-.08-2.16-.12-3.24-.2-5.4-.13-.64-.2-.96-.33-1.59v-1.6c-.16.89-.23,1.33-.39,2.22.05.4.08.6.13,1-.08.64-.12.97-.2,1.61.13.88.2,1.32.33,2.2-.1,0-.16,0-.26.01-.21-.47-.31-.71-.52-1.18-.1-.56-.16-.84-.26-1.4-.42-.31-.62-.46-1.04-.77-.18-.56-.27-.84-.45-1.4.21-.73.31-1.1.52-1.83-.21,0-.31,0-.52,0v-1.62c-.08,0-.12,0-.2,0-.08,1.05-.12,1.58-.2,2.63-.62-1.93-.94-2.9-1.56-4.85v-1.63c-.13,0-.19,0-.32,0-.29-.81-.43-1.22-.71-2.04-.44-3.36-.66-5.04-1.11-8.43-.13-1.56-.19-2.35-.32-3.92v-4.52c.29-.64.43-.96.71-1.6v-1.64c-.16.23-.23.35-.39.59v1.02c-.13,0-.19-.01-.32-.02v-2.26c-.08-.42-.12-.62-.2-1.04v-5.55c.08-.48.12-.73.2-1.21v-1.65c.13-.48.19-.72.32-1.19v-3.29c.26-2.51.39-3.77.65-6.27.68-2.77,1.01-4.14,1.69-6.88.49-.98.74-1.46,1.24-2.43ZM183.38,377.9c.08.42.12.62.2,1.04.21,0,.31.01.52.02v-1.85c.08-.16.12-.24.2-.4-.16-.5-.23-.75-.39-1.25-.21.24-.31.35-.52.59v1.85ZM183.38,423.48c.16.39.23.59.39.98v-1.64c-.16.02-.23.03-.39.04v.62ZM184.62,354.04c.16.02.23.03.39.05v-1.84c-.08-.17-.12-.26-.2-.44,0-.65,0-.98,0-1.63-.08-.26-.12-.38-.2-.64v4.5ZM184.81,366.11c.1.34.16.5.26.84.1-.32.16-.48.26-.79.18.02.27.02.45.04-.1-1.15-.16-1.72-.26-2.88-.29.46-.43.69-.71,1.16v1.63ZM185.01,370.62c.08.25.12.38.2.63.05-.65.08-.97.13-1.62-.05-.49-.08-.74-.13-1.24-.08.24-.12.36-.2.6,0,.65,0,.98,0,1.63ZM185.01,374.5c.08-.41.12-.61.2-1.01-.08,0-.12,0-.2-.01v1.02ZM185.2,424.91c.05-.25.08-.38.13-.63-.05,0-.08,0-.13.01v.61ZM185.34,345.15v3.47c.16.02.23.03.39.06.08.42.12.63.2,1.04.16-.3.23-.45.39-.76-.16-.59-.23-.89-.39-1.48.13-.88.19-1.31.32-2.19-.21-.19-.31-.29-.52-.49-.08-.34-.12-.51-.2-.85-.08.48-.12.71-.19,1.19ZM186.63,393.88v.61c.05-.73.08-1.1.13-1.83-.05.49-.08.73-.13,1.22ZM186.77,342.13c.08.01.12.02.2.03v.61c.05,0,.08.01.13.02v-1.22c-.13-.02-.19-.03-.32-.06v.61ZM186.96,365.69c.05.74.08,1.1.13,1.84.1,0,.16.01.26.02-.1-1.14-.16-1.71-.26-2.86-.05.4-.08.6-.13,1ZM187.28,427.91c.08-.17.12-.26.2-.43v-.81c-.08.33-.12.5-.2.83v.41ZM187.48,442.26c.13-.27.19-.4.32-.66-.05,0-.08.01-.13.02-.08.26-.12.39-.2.64ZM188.13,355.49v1.21c.23-.21.35-.32.58-.54-.08-.49-.12-.74-.2-1.24-.21-.19-.31-.28-.52-.47.05.41.08.62.13,1.02ZM188.19,397.5c.13.72.19,1.09.32,1.81.13-.25.2-.37.33-.61v-3.22c-.13-.64-.2-.97-.33-1.61-.13,1.45-.19,2.18-.32,3.64ZM188.84,342.28c.08.5.12.75.2,1.24.08-.15.12-.22.19-.37v-2.22c.13-.22.2-.33.33-.54v.6c.13-.22.19-.33.32-.54.1.26.16.39.26.64.13-.86.2-1.29.33-2.15-.29-.05-.43-.08-.71-.13.05-.63.08-.95.13-1.58-.05-.25-.08-.38-.13-.63-.18.53-.27.79-.45,1.32-.18,1.74-.27,2.61-.45,4.35ZM189.43,448.35c.13-.43.2-.64.33-1.07v-.6c-.13.03-.2.04-.33.06v1.61ZM190.14,388.24c.05.32.08.48.13.8.13-1.12.19-1.68.32-2.8-.1-.4-.16-.61-.26-1.01.18-.24.27-.36.45-.59v-2.8c-.26.31-.39.47-.65.78,0,2.25,0,3.37,0,5.62ZM191.18,346.67c.05,0,.08.01.13.02v-.6c-.05,0-.08-.01-.13-.02v.6ZM191.51,399.83c.08.56.12.83.2,1.39.29-.81.43-1.21.71-2.02-.08-.72-.12-1.07-.2-1.79-.21-.15-.31-.23-.52-.39-.08,1.12-.12,1.68-.2,2.8ZM191.7,405.21c.13.23.2.35.33.58-.05-.71-.08-1.07-.13-1.79-.08.48-.12.72-.2,1.2ZM192.94,343.17v3.18c-.21-.03-.31-.05-.52-.08-.08.39-.12.58-.2.97.49-.08.74-.13,1.24-.21-.13-.73-.2-1.1-.33-1.83.13-1.01.2-1.52.33-2.53-.08-.25-.12-.38-.2-.63-.13.45-.2.68-.33,1.14ZM192.22,457.56c.08-.73.12-1.1.2-1.83-.08.02-.12.03-.2.04v1.79ZM193.65,397.58c.26,0,.39,0,.65-.01-.18-.23-.27-.35-.45-.58-.08.24-.12.36-.19.6ZM193.98,395.99c.08.16.12.23.2.39.05-.63.08-.95.13-1.58-.13,0-.19,0-.32,0v1.19ZM197.16,395.35c.08,0,.12,0,.2,0-.23-.39-.35-.58-.59-.97.16.39.23.59.39.98ZM196.97,442.75c.08-.01.12-.02.2-.04.08-.48.12-.73.2-1.21-.16-.21-.23-.31-.39-.52v1.76ZM197.16,340.55c.08.01.12.02.2.04v-.39c-.08.14-.12.21-.2.36ZM197.36,417.06c.13-.01.19-.02.32-.03-.08-.38-.12-.58-.2-.96-.05.4-.08.59-.13.99ZM197.68,415.47c.16-.01.23-.02.39-.03v-2.54c-.1-.3-.16-.46-.26-.76-.05,1.33-.08,2-.13,3.33ZM198.4,358.89c.05-.62.08-.93.13-1.54.08-.22.12-.34.19-.56v-1.56c-.13.37-.19.56-.32.93v2.73ZM198.53,349.95c.16.41.23.62.39,1.03.16-.83.23-1.25.39-2.08-.31-.28-.47-.42-.78-.7v1.75ZM198.92,360.12c.08,0,.12.01.2.02-.08-.32-.12-.48-.2-.8v.78ZM199.63,356.32c.29.04.43.05.72.09,0,.7,0,1.05,0,1.74.16.02.23.03.39.05v-3.87c-.34-.04-.51-.07-.84-.11-.1.84-.16,1.26-.26,2.1ZM199.89,439.11c.21-.42.31-.63.52-1.05-.1-.29-.16-.44-.26-.73-.1.71-.16,1.07-.26,1.79ZM200.15,355.42c-.05,0-.08-.01-.13-.02.05-.15.08-.22.13-.37v.39ZM200.35,350.8c.05,0,.08.01.13.02v-1.74l-.13-.02v1.74ZM200.87,350.87c.08.01.12.02.2.03v-1.16c-.08.22-.12.33-.2.55v.58ZM201.32,358.46c.1.32.16.48.26.8.21.02.31.04.52.06.05-.84.08-1.26.13-2.1.1.24.16.37.26.61.18-.59.27-.89.45-1.48-.34-.04-.51-.06-.85-.11-.21.36-.31.54-.52.9-.1.53-.16.79-.26,1.32ZM201.78,369.68c.05,0,.08,0,.13.01v-.96c-.13.14-.19.21-.32.36.08.24.12.36.2.59ZM201.78,361.4c.13.01.19.02.32.03-.13-.24-.19-.37-.32-.61v.58ZM202.1,410.85c.21-.01.31-.02.52-.04v-.96c-.21.24-.31.37-.52.61v.38ZM202.95,431.69c.08.37.12.56.2.93v-2.68c-.08.01-.12.02-.2.03v1.72Z"/>
        <path class="cls-1" d="M208.34,338.24c.78.15,1.17.23,1.95.38.16,1.23.23,1.84.39,3.06.18.03.27.05.45.08-.13-.69-.19-1.04-.32-1.74.13-.79.19-1.19.32-1.98.52.1.78.15,1.3.26.39.6.58.89.97,1.48.1.76.16,1.14.26,1.89.1-1.23.16-1.85.26-3.08.23.49.35.73.59,1.22.26-.17.39-.26.65-.42.16.25.23.38.39.63.29.06.43.08.71.14.23-.1.35-.15.59-.25.26.2.39.3.65.49-.08-.16-.12-.24-.2-.4.36.07.55.11.91.18.16-.26.23-.39.39-.65.05.3.08.45.13.75.91.18,1.36.27,2.27.45.57.26.86.38,1.43.64.42.44.62.65,1.04,1.09.08.44.12.66.2,1.1.16-.18.23-.28.39-.46.13.24.19.36.32.59v.88c-.08.2-.12.3-.2.5.1.87.16,1.3.26,2.17.18-.25.27-.38.45-.63.1-.9.16-1.35.26-2.25.26.82.39,1.23.65,2.05v2.81c.13.02.19.03.32.05.18-.67.27-1.01.45-1.68.44,1.27.66,1.9,1.11,3.16.16.79.23,1.19.39,1.98-.08.41-.12.61-.19,1.01v1.4c.08.22.12.33.19.55v1.05c.13-.75.2-1.12.33-1.87.16.02.23.03.39.06.34,2.69.51,4.03.85,6.7-.05,1.24-.08,1.86-.13,3.1.13.78.19,1.16.32,1.94.16-.12.23-.19.39-.31.1,4.16.16,6.23.26,10.38-.34,5.02-.51,7.54-.85,12.59-.13.9-.19,1.35-.32,2.25v1.39c-.42,1.87-.62,2.82-1.04,4.71-.16.21-.23.32-.39.53v1.39c-.21.64-.31.95-.52,1.59-.18.22-.27.33-.45.54-.1.98-.16,1.48-.26,2.46-.6,1.15-.9,1.73-1.49,2.9-.16-.27-.23-.41-.39-.68-.1.22-.16.33-.26.55v1.59c-.34.52-.51.78-.85,1.3-.13,0-.19.01-.32.02-.08-.35-.12-.52-.2-.87-.05.5-.08.75-.13,1.25-.23.44-.35.67-.58,1.11-.05-.14-.08-.21-.13-.35v-2.5c-.26.02-.39.03-.65.04-.1.58-.16.87-.26,1.45-.21.59-.31.88-.52,1.47v1.97c-.65.06-.97.08-1.62.14v-.54c-.08,0-.12,0-.2.02-.08.3-.12.44-.2.74-.55-.24-.82-.36-1.36-.61v.55c-.13.37-.2.56-.33.94-.29.03-.43.04-.71.06v-1.46c-.13-.35-.19-.53-.32-.89v.91c-.29.39-.43.58-.71.97.29.19.43.29.71.49-.99.31-1.48.46-2.47.78-.29,1.43-.43,2.14-.71,3.57-.21,2.24-.31,3.36-.52,5.61-.1,7.64-.16,11.46-.26,19.12-.13.47-.19.7-.32,1.17.21-.04.31-.06.52-.1-.21,1.6-.31,2.4-.52,4-.73,1.12-1.09,1.69-1.82,2.82-.18-.48-.27-.72-.45-1.21-.13.18-.19.27-.32.44-.08-.13-.12-.2-.2-.33-.16.48-.23.73-.39,1.21-.47-.35-.7-.52-1.17-.87v-.57c-.08.02-.12.03-.2.04-.08.47-.12.71-.19,1.18-.31-.23-.47-.35-.78-.58-.1-.96-.16-1.44-.26-2.41,0-10.99,0-21.98,0-32.98.29-.86.43-1.29.71-2.14v-3.03c-.13.84-.19,1.26-.32,2.11-.08,0-.12,0-.2.02,0-3.26,0-4.89,0-8.15.08-.61.12-.91.2-1.52v-8.33c.05-.83.08-1.25.13-2.08-.1,0-.16,0-.26,0,.1-.61.16-.91.26-1.52-.08-1.89-.12-2.84-.2-4.73.08-.75.12-1.13.2-1.88-.05,0-.08,0-.13,0v-6.25c.05-.53.08-.79.13-1.32v-5.67c.08-.22.12-.33.2-.55-.13-.61-.19-.92-.32-1.54.18-.82.27-1.23.45-2.04v-.95c-.13-.46-.2-.7-.33-1.16v-1.52c.23-.58.35-.87.59-1.45-.16-.24-.23-.37-.39-.61v-2.08c-.08-.16-.12-.24-.2-.4,0-3.94,0-5.9,0-9.84.13-.81.2-1.22.33-2.03.1.02.16.03.26.04,0-1.06,0-1.59,0-2.64-.1-.77-.16-1.16-.26-1.93.16-.43.23-.64.39-1.06v-2.83c.42-.15.62-.22,1.04-.36ZM206.45,417.36c.05.75.08,1.13.13,1.88.13-.01.2-.02.33-.03-.05-.75-.08-1.12-.13-1.87.05-.46.08-.69.13-1.15-.05-.37-.08-.56-.13-.94-.08,0-.12.01-.2.02-.05.84-.08,1.26-.13,2.1ZM206.45,448.2c.18-.04.27-.06.45-.1.1-.63.16-.94.26-1.56-.16-.42-.23-.63-.39-1.06-.13,1.08-.19,1.63-.32,2.71ZM206.78,449.46c.05-.16.08-.24.13-.4-.05.01-.08.02-.13.03v.38ZM208.92,341.73c.18.03.27.05.45.08v-2.06c-.18-.03-.27-.05-.45-.09v2.06ZM210.68,449.74c.05-.24.08-.35.13-.59-.05.01-.08.02-.13.03v.56ZM213.08,355.97c-.13.79-.19,1.19-.32,1.99v1.11c-.13.35-.19.53-.32.88.05.23.08.34.13.57-.05,1.4-.08,2.1-.13,3.5v10.55c-.1.81-.16,1.21-.26,2.03v8.89c.1.22.16.34.26.56v1.11c-.21.52-.31.77-.52,1.29.21,2.67.31,4.01.52,6.67v3.14c.42.95.62,1.43,1.04,2.37.55-.02.82-.03,1.36-.05v1.47c.29-.45.43-.68.71-1.12.23,0,.35-.01.59-.02-.23,1.25-.35,1.87-.59,3.13.08.22.12.32.2.54.08-.44.12-.66.2-1.1.13.43.19.65.32,1.08.13-.23.2-.34.33-.56.1.21.16.32.26.53.05-.66.08-.99.13-1.64-.05-.36-.08-.54-.13-.91.08-.8.12-1.21.2-2.01.81-.17,1.21-.26,2.01-.43.08.79.12,1.19.2,1.98.21-.66.31-.99.52-1.64v-.9c1.14-2.41,1.72-3.6,2.86-5.96.44-2.99.66-4.48,1.11-7.45.13-.28.19-.42.32-.7-.08-.78-.12-1.17-.2-1.95.13-3.4.19-5.09.32-8.48-.21-2.35-.31-3.53-.52-5.88v-2.84c-.08-.22-.12-.33-.2-.55-.18-1.65-.27-2.48-.45-4.13-.23-.31-.35-.47-.58-.78-.13-.44-.19-.67-.32-1.11-.62-1.29-.94-1.94-1.56-3.25-.73-.6-1.09-.9-1.82-1.51v-.54c-.6.27-.9.41-1.5.69.1-.49.16-.74.26-1.23-.26.32-.39.49-.65.81-.86-.12-1.29-.18-2.15-.3-.13.2-.19.3-.32.51-.08-.23-.12-.35-.2-.58-.16.2-.23.3-.39.5-.29-.04-.43-.06-.72-.1,0,.74,0,1.11,0,1.85ZM214.19,352.26c0-.22,0-.33,0-.55-.08.21-.12.31-.2.52.08.01.12.02.2.03ZM221.21,343.09c.16.03.23.04.39.07v-1.07c-.08-.01-.12-.02-.2-.04-.08.41-.12.62-.19,1.04ZM222.77,359.75c.23-.18.35-.28.59-.46-.23-.03-.35-.04-.59-.07v.53ZM223.35,406.5v.53c.05-.64.08-.96.13-1.61-.05.43-.08.64-.13,1.07ZM224.2,387.7c.08-.14.12-.21.2-.35-.08,0-.12,0-.2,0v.35ZM224.39,366.66c.05,0,.08,0,.13.01-.05-.22-.08-.33-.13-.54,0,.21,0,.32,0,.53ZM228.1,359.88c.13.02.2.02.33.04-.05-.35-.08-.53-.13-.89.26-.73.39-1.1.65-1.83-.34.16-.51.24-.85.4v2.27ZM228.42,383.06c-.05.21-.08.31-.13.51.05.42.08.63.13,1.05.08,0,.12,0,.2,0,.13-1.39.19-2.08.32-3.47-.13,0-.19,0-.32-.01-.08.76-.12,1.14-.2,1.91ZM228.94,369.36c.1.22.16.33.26.54,0,.76,0,1.14,0,1.91.13.01.2.02.33.03v-2.43c.13-.33.19-.5.32-.84-.21-.78-.31-1.17-.52-1.95-.21.6-.31.9-.52,1.51.05.49.08.74.13,1.23ZM229.2,376.49c.13,0,.2.01.33.02v-1.38c-.13.55-.2.82-.33,1.37ZM229.2,380.83c.05-.76.08-1.14.13-1.9-.05.14-.08.2-.13.34v1.56Z"/>
        <path class="cls-1" d="M237.58,340.62v1.51c-.08-.02-.12-.02-.2-.04v.84c.21.04.31.06.52.1v-2.34c.08-.32.12-.48.2-.8-.1-.56-.16-.84-.26-1.39.16-.17.23-.25.39-.42v-.5c.1-.11.16-.16.26-.27.05.14.08.22.13.36.1-.44.16-.67.26-1.11.6-.66.9-.99,1.5-1.65.21.05.31.07.52.12.49-.41.9-.46,1.73-.53-.13.14-.38.03-.3.37.08.02.12.03.2.05,0-.46.41-.28.7-.44.7,0,1.06,0,1.76.01-.42.23-.63.35-1.05.58.18.04.27.07.46.11.59-.22.89-.33,1.49-.55.66.17.98.25,1.64.42.28-.03.43-.04.71-.06-.08.14-.12.21-.21.35-.44.18-.66.27-1.1.46-.12.2.09.56.27,1.05.16-.61.31-.83.9-1,.26-.13.39-.19.65-.32.54-.15.82-.23,1.36-.37-.09.2-.14.3-.23.5-1.17.56-1.38,1.21-1.38,2.94.13.41.19.62.32,1.03.08-.17.12-.26.2-.44v-2.71c.26-.96,1.41-.42,2.36-.68-.29.21-.43.31-.72.52.43-.05.64-.07,1.07-.12-.05.26-.08.39-.14.65-.62.27-.3,1.02-.3,1.91.1.34.16.51.26.85-.1.23-.16.34-.26.57.23.05.35.08.59.13.18-.53.27-.79.45-1.32v1.73c.1.53.16.79.26,1.32.18-.46.27-.7.45-1.16-.05-.14-.08-.2-.13-.34v-1.41c.05-.49.08-.73.13-1.22.1-.16.16-.25.26-.41.83,1.58,1.25,2.36,2.08,3.91.13.03.19.04.32.07.16.78.23,1.17.39,1.95v1.55c-.16.15-.23.23-.39.38-.08-.39-.12-.58-.2-.97v-1.71c-.13-.03-.19-.04-.32-.07v1.4c-.18.15-.27.22-.45.37.18.54.27.8.45,1.34v1.71c.21.04.31.06.52.1.05.32.08.48.13.8.23.17.35.25.58.42.05-.11.08-.17.13-.28v-2.16c.23-.26.35-.39.58-.65v.46c.21.47.31.71.52,1.18.16.83.23,1.24.39,2.07-.08.23-.12.35-.2.58,0,1.84,0,2.76,0,4.61.26.47.39.71.65,1.18-.05-.44-.08-.66-.13-1.09v-2.45c.16-.34.23-.51.39-.85.29,2.19.43,3.28.71,5.46-.16.28-.23.42-.39.7.21.21.31.32.52.53v1.37c.13.02.19.03.32.05.23,3.14.35,4.7.59,7.82v2.43c.13.32.19.47.32.79v10.9c.05.43.08.64.13,1.07-.1.24-.16.36-.26.6.1.31.16.46.26.77-.13.42-.2.63-.33,1.05.21,0,.31,0,.52.02-.13,4.47-.2,6.71-.33,11.2-.08.18-.12.28-.2.46.08.66.12,1,.2,1.66-.13.31-.19.46-.32.77.13,0,.19,0,.32-.01-.08,2.12-.12,3.19-.2,5.31-.16.31-.23.47-.39.78v3.8c-.26,3-.39,4.5-.65,7.52-.34,2.29-.51,3.44-.85,5.76-.1.26-.16.39-.26.65v-3.06c-.13-.29-.19-.43-.32-.72-.13,3.27-.2,4.9-.33,8.18-.42,1.48-.62,2.22-1.04,3.71-.1-.35-.16-.53-.26-.88-.13,1.07-.2,1.61-.33,2.69-.16.4-.23.6-.39,1-.13.02-.2.04-.33.06-.05-.24-.08-.36-.13-.6-.36.44-.55.66-.91,1.1.08.17.12.26.2.43-.23.36-.35.54-.59.9v.62c.31-.44.47-.66.78-1.09-.18.91-.27,1.36-.45,2.27-.29.56-.43.84-.71,1.4-.23-.2-.35-.3-.58-.5-.08.2-.12.31-.2.51v.78c-.6,1.07-.9,1.61-1.49,2.69-.18-.91-.27-1.36-.45-2.27.08-.33.12-.5.19-.83-.23.36-.35.55-.58.91v2.22c.1.17.16.25.26.42-.36.4-.55.6-.91,1-.23.05-.35.08-.58.13-.57.58-.86.87-1.43,1.45v-1.45c-.23-.59-.35-.88-.58-1.48.1-.67.16-1,.26-1.66-.21.04-.31.07-.52.11-.13.41-.2.62-.33,1.04-.08.66-.12.99-.2,1.66.08-.02.12-.03.2-.04v.64c-.13.48-.19.72-.32,1.2-.29.07-.43.1-.71.17.05-1.05.08-1.57.13-2.62-.21.95-.31,1.43-.52,2.39v.97c-.42-.16-.62-.24-1.04-.41v-1.14c-.26.58-.39.87-.65,1.45-.47-.15-.7-.23-1.17-.38-.18-.48-.27-.73-.45-1.21-.08.28-.12.42-.2.7-.29.07-.43.1-.71.16-.08-.58-.12-.87-.2-1.44-.13.03-.19.04-.32.07-.1.29-.16.43-.26.72-.31-.33-.47-.49-.78-.82v-1c-.36.08-.55.12-.91.2-.62-1.87-.94-2.81-1.56-4.7-.08.42-.12.63-.19,1.04-.18-.43-.27-.65-.45-1.08-.16-1.12-.23-1.67-.39-2.79-.26.05-.39.07-.65.12-.1-1.47-.16-2.2-.26-3.68-.26-.36-.39-.55-.65-.91-.26-1.79-.39-2.69-.65-4.49-.29-2.48-.43-3.72-.71-6.21.1-.22.16-.33.26-.54-.29-1.47-.43-2.2-.71-3.68.05-2.4.08-3.6.13-6-.13-.4-.2-.6-.33-1-.05-.96-.08-1.43-.13-2.39.05,0,.08,0,.13,0,.08.61.12.92.2,1.53.18-.56.27-.84.45-1.4-.31-.39-.47-.59-.78-.98v-1.88c.08-.21.12-.31.2-.52-.18-.68-.27-1.01-.45-1.69,0-.62,0-.92,0-1.54.16-.35.23-.52.39-.87-.13-.34-.19-.51-.32-.84-.08-2.81-.12-4.22-.2-7.03.05-.75.08-1.13.13-1.89-.05-.41-.08-.62-.13-1.03.05-.48.08-.72.13-1.2-.08-.83-.12-1.24-.2-2.06.18-.89.27-1.33.45-2.21-.1-.35-.16-.52-.26-.87v-1.72c.23-.2.35-.29.58-.49.05-.61.08-.92.13-1.53-.13,0-.2-.01-.33-.02v-.85c-.16,0-.23-.01-.39-.02.1-.54.16-.82.26-1.36,0-2.26,0-3.39,0-5.65.05-2.26.08-3.38.13-5.64.21-.46.31-.69.52-1.14v-3.76c.34-3.1.51-4.65.84-7.72.65-3.23.97-4.84,1.62-8.03.78-2.01,1.17-3.01,1.95-4.99.08.49.12.73.2,1.22ZM232.97,376.71c.08-.34.12-.51.19-.84-.16.2-.23.29-.39.49.08.14.12.21.2.36ZM233.03,392.77c.18.27.27.41.45.68.1-.27.16-.41.26-.68-.13-.75-.19-1.12-.32-1.87-.16.75-.23,1.13-.39,1.88ZM233.49,362.43c.08,0,.12.01.2.02-.08-.14-.12-.22-.2-.36v.34ZM233.81,423.92c.1-.22.16-.33.26-.55v-.85c-.1.56-.16.84-.26,1.4ZM234.53,427.05c.08-.01.12-.02.2-.03v-.51c-.08.21-.12.32-.2.54ZM235.31,351.64c.13-.32.19-.47.32-.79-.1-.29-.16-.43-.26-.72-.1.25-.16.38-.26.64.08.35.12.53.2.88ZM238.95,357.73c-.16,1.98-.23,2.97-.39,4.96.29.43.43.65.71,1.08-.18.98-.27,1.47-.45,2.45v2.17c-.08.39-.12.59-.2.98,0,1.27,0,1.9,0,3.17-.18.79-.27,1.18-.45,1.97.18-.25.27-.38.45-.64-.16,1.66-.23,2.49-.39,4.15.1.21.16.31.26.51v1.84c-.16.33-.23.49-.39.82.05,2.14.08,3.21.13,5.35,0,3.81,0,5.72,0,9.53.1,1.13.16,1.7.26,2.83.13,5,.19,7.5.32,12.5.44,4.03.66,6.04,1.11,10.03.34,1.82.51,2.72.84,4.52-.16.62-.23.93-.39,1.55.13.31.19.47.32.78.16-.55.23-.83.39-1.38-.08.41-.12.61-.2,1.02.16-.22.23-.33.39-.56.21.5.31.75.52,1.24.13.7.19,1.06.32,1.76.08-.34.12-.51.2-.86.13.31.2.46.33.77-.13.35-.2.52-.33.87.29-.25.43-.37.71-.61.29.15.43.22.71.37-.08.21-.12.31-.19.52.21-.04.31-.05.52-.09.18.43.27.64.45,1.06.1-.28.16-.42.26-.7.21-.04.31-.05.52-.09.1.44.16.65.26,1.09.18-.49.27-.73.45-1.21.29-.05.43-.07.71-.12.05.18.08.28.13.46.29-.05.43-.08.71-.13.21-.55.31-.83.52-1.38.36.26.55.39.91.65-.16.54-.23.81-.39,1.35.29-.24.43-.36.72-.61v-2.55c.16-.03.23-.04.39-.06.21-.61.31-.91.52-1.52.08-.01.12-.02.2-.03.57-1.11.86-1.66,1.43-2.75.34-1.75.51-2.63.84-4.37.13-.33.2-.5.33-.83v-1.73c.16-1.02.23-1.53.39-2.55.08.3.12.46.2.76v-1.72c.29-3.72.43-5.58.71-9.27.16-9.62.23-14.42.39-24-.1-.38-.16-.57-.26-.94v-1.71c.08-.18.12-.27.2-.46-.08-.13-.12-.19-.2-.32v-.93c.13-.3.19-.46.32-.76.16-1.05.23-1.57.39-2.62-.08-.69-.12-1.03-.2-1.73.08-.43.12-.64.2-1.07-.1-1.38-.16-2.07-.26-3.45-.18-.7-.27-1.06-.45-1.76-.05.37-.08.55-.13.92.05.44.08.66.13,1.11-.18-.02-.27-.03-.45-.05-.16-1.83-.23-2.74-.39-4.58-.42-2.81-.62-4.22-1.04-7.05.34-.32.51-.48.84-.8-.16-.15-.23-.23-.39-.38.08-.18.12-.26.19-.44v-.78c-.08-.01-.12-.02-.19-.03-.13.61-.2.91-.33,1.52v-1.1c-.21.41-.31.61-.52,1.02-.13-.46-.19-.69-.32-1.16.05-.37.08-.56.13-.93-.18.16-.27.24-.45.4-.23-.86-.35-1.29-.58-2.16v-2.69c-.16-.03-.23-.04-.39-.07-.05.82-.08,1.22-.13,2.04-.44-.52-.66-.79-1.1-1.31.08-.37.12-.55.19-.92v-1.27c-.08-.02-.12-.02-.19-.04v-.96c-.34.83-.51,1.24-.85,2.07-.42-.08-.62-.12-1.04-.2v-2.57c-.16-.03-.23-.05-.39-.08.08.14.12.22.2.36-.29.65-.43.98-.72,1.63-.16-.03-.23-.04-.39-.07-.16-.48-.23-.72-.39-1.21-.26.6-.39.9-.65,1.5-.34.33-.51.49-.84.82v-.49c-.65.53-.97.8-1.62,1.34-.7,1.65-1.05,2.48-1.76,4.15-.55,2.62-.82,3.94-1.36,6.59-.08-.01-.12-.02-.2-.03.08-.32.12-.48.2-.8-.08-.54-.12-.82-.2-1.36v-1.83c-.21.5-.31.75-.52,1.26.05.41.08.61.13,1.02ZM240.38,441.92c.08-.02.12-.02.2-.04v-.83c-.08.02-.12.02-.2.04v.83ZM240.57,443.21l.13-.03v-.5c-.05.01-.08.02-.13.03v.5ZM245.31,344.51c.08.4.12.61.2,1.01.13-.23.19-.35.32-.58-.05-1.89-.08-2.83-.13-4.72-.16-.03-.23-.05-.39-.09v4.38ZM247.59,444.24v.8c-.21.05-.31.07-.52.12v-.8c.21-.05.31-.07.52-.12ZM249.21,347.36c.05.2.08.3.13.5-.13.17-.2.25-.33.42v-.96c.08.01.12.02.2.04ZM249.02,442.64c.13.1.2.15.33.25.13-.86.19-1.29.32-2.14-.18.04-.27.06-.45.1-.08.72-.12,1.08-.2,1.8ZM249.54,342.01c.16.03.23.05.39.08v-1.91c-.16-.03-.23-.05-.39-.09v1.91ZM249.93,429.87c.05,0,.08-.01.13-.02-.05-.12-.08-.18-.13-.29v.32ZM254.67,368.34v2.49c-.13-.01-.2-.02-.33-.03v-.94c-.13-.64-.19-.96-.32-1.59.26.03.39.04.65.07ZM254.74,372.7c-.1.43-.16.64-.26,1.07-.08-.88-.12-1.32-.2-2.2.18.45.27.68.45,1.13ZM254.48,414.29c.08,0,.12-.01.2-.02.13-.45.19-.67.32-1.12-.08,0-.12.01-.2.02-.13.45-.19.67-.32,1.12ZM254.48,416.94v1.56c.08,0,.12-.01.2-.02.05-1,.08-1.51.13-2.51-.13.39-.19.58-.32.97ZM254.67,408.51c.13-.26.19-.39.32-.65-.08-.31-.12-.46-.2-.77-.05.19-.08.29-.13.48v.94ZM254.8,414.89c.23-.4.35-.6.59-.99-.08,0-.12.01-.2.02-.16.39-.23.58-.39.97ZM256.1,350.38c.18-.09.27-.13.45-.22-.05-.2-.08-.29-.13-.49-.13.28-.19.43-.32.71ZM256.56,429.21v-.46c-.05,0-.08.01-.13.02.05.18.08.27.13.44Z"/>
        <path class="cls-1" d="M261.62,340.38c.23.05.35.08.58.14v2.11c.18.04.27.06.45.1v-2.1c.23.05.35.08.59.14.08.44.12.66.2,1.09.21-.37.31-.56.52-.93.55.13.82.19,1.36.32v.74c.16.39.23.59.39.98.21.05.31.07.52.12-.13-.68-.2-1.02-.33-1.7.47.11.7.16,1.17.27.1.2.16.3.26.5.13-.15.19-.22.32-.37.57.13.86.2,1.43.33.05.3.08.45.13.76.21.05.31.07.52.12.08-.27.12-.41.2-.68.29.36.43.53.71.89.08-.27.12-.41.2-.68.7.16,1.05.25,1.75.41.16.21.23.31.39.52.42-.08.62-.11,1.04-.19.21.22.31.33.52.55v2.69c.16.03.23.05.39.09.18-1.04.27-1.55.45-2.58.29.07.43.1.72.17-.08,1.05-.12,1.58-.2,2.63.31-.1.47-.15.78-.25-.13-.7-.19-1.05-.32-1.76.1-.2.16-.3.26-.5.57.24.86.37,1.43.61.49,0,.74,0,1.23,0v4.16c.21-.45.31-.68.52-1.13v-2.9c.42.1.62.14,1.04.24-.05.1-.08.15-.13.24.21,1.31.31,1.97.52,3.28.13-.74.19-1.11.32-1.85v-1.51c.21.05.31.07.52.12-.08.25-.12.38-.19.64.16.04.23.05.39.09-.08.31-.12.47-.2.78.26.06.39.09.65.15.08-.47.12-.71.2-1.18.1.02.16.04.26.06v1.49c.13.36.2.53.33.89.13-.3.19-.45.32-.74-.13-.62-.19-.94-.32-1.56.91.1,1.36.15,2.27.26v1.47c.13.14.2.2.33.34v-1.74c.31.07.47.11.78.18,0,2.45,0,3.68,0,6.13-.23-.05-.35-.07-.58-.12.08-.25.12-.38.2-.63-.16-1.1-.23-1.65-.39-2.75-.13.88-.2,1.32-.33,2.21.13.19.2.28.33.47-.13.56-.2.84-.33,1.41,0,.54,0,.8,0,1.34-.16.4-.23.6-.39,1-.05-.28-.08-.42-.13-.69-.08.42-.12.62-.2,1.04-.42-.08-.62-.11-1.04-.19-.21-.25-.31-.38-.52-.64.05.82.08,1.23.13,2.06-.05.26-.08.39-.13.66-.65-.11-.97-.17-1.62-.28.1-.15.16-.22.26-.37-.16-.41-.23-.61-.39-1.03v-.55c-.13-.02-.19-.04-.32-.06v1.92c-.57-.1-.86-.15-1.43-.24v-1.93c-.16.19-.23.29-.39.48.08.57.12.85.2,1.42-.7.21-1.05.32-1.76.54v-.84c-.08-.01-.12-.02-.2-.03-.44,2.83-.66,4.25-1.11,7.11-.05,0-.08-.01-.13-.02v-.7c-.13-.02-.2-.03-.33-.04-.08.89-.12,1.34-.19,2.23.13.64.19.95.32,1.59v1.83c-.1.44-.16.66-.26,1.1.1.01.16.02.26.03.08.63.12.94.2,1.56-.08.1-.12.16-.2.26-.18-.41-.27-.62-.45-1.03-.1.61-.16.91-.26,1.53v1.84c.08.18.12.26.2.44v1.55c.16-.33.23-.49.39-.82v-2.25c.16.01.23.02.39.03-.1,1.79-.16,2.68-.26,4.48-.13.16-.19.24-.32.4.18.24.27.36.45.59-.18,5.89-.27,8.84-.45,14.76-.08.73-.12,1.1-.2,1.84.08.17.12.25.2.42v.7c-.08.17-.12.26-.2.43-.08,1.69-.12,2.54-.2,4.24.08.28.12.42.2.7-.08.29-.12.43-.2.71.1.45.16.67.26,1.12-.16.35-.23.52-.39.87.05.17.08.25.13.42-.05,1.36-.08,2.04-.13,3.4v10.73c-.08,2.33-.12,3.49-.2,5.82-.13-.2-.19-.31-.32-.51-.1,1.26-.16,1.89-.26,3.16.08.78.12,1.17.2,1.95.1.21.16.31.26.52v1.84c-.1.02-.16.03-.26.05-.1-1.05-.16-1.58-.26-2.64-.08.01-.12.02-.2.04-.08.92-.12,1.39-.2,2.31.26.57.39.86.65,1.43v1.56c-.13-.14-.2-.21-.33-.36v.71c.16.53.23.8.39,1.33-.16.6-.23.9-.39,1.5-.05.41-.08.61-.13,1.02v2.13c-.36.37-.55.56-.91.94-.05-.5-.08-.75-.13-1.25-.16.04-.23.06-.39.09v-1.86c-.29.18-.43.27-.71.45.1.43.16.65.26,1.08-.1.2-.16.3-.26.49.08.15.12.23.19.38v.86c-.29.07-.43.11-.71.18-.08-.15-.12-.23-.2-.38.08-.36.12-.55.2-.91-.16-.08-.23-.12-.39-.19.08-.36.12-.55.19-.91-.13.38-.19.56-.32.94v1.58c-.29.07-.43.11-.71.18-.21-.12-.31-.18-.52-.31.05-.36.08-.54.13-.9-.05-.1-.08-.15-.13-.26v-2.9c-.1-.15-.16-.23-.26-.38.16-.62.23-.92.39-1.54-.13.03-.19.04-.32.07-.26,1.16-.39,1.74-.65,2.91.18.6.27.9.45,1.49-.13.5-.19.74-.32,1.24-.16-.14-.23-.21-.39-.34-.13-1.02-.2-1.53-.33-2.55.16-3.42.23-5.13.39-8.54v-3.35c.26-.98.39-1.46.65-2.43v-1.31c-.13-.5-.19-.75-.32-1.26.13-.14.19-.2.32-.34.08-.53.12-.8.2-1.33-.16.02-.23.03-.39.05,0-1.34,0-2.01,0-3.35-.05,0-.08,0-.13.02v-.87c.13-.02.19-.02.32-.04v-.43c-.13.02-.19.02-.32.04v-.73c.1-.01.16-.02.26-.03.1-.48.16-.71.26-1.19-.08-.28-.12-.42-.2-.7-.13.01-.19.02-.32.03.05-1.63.08-2.45.13-4.08.13-.01.2-.02.33-.03-.13-.63-.2-.94-.33-1.57.08,0,.12,0,.2-.02-.08-.34-.12-.51-.2-.86.08-2.51.12-3.76.2-6.26.16,0,.23-.01.39-.02v3.62c.16-.36.23-.54.39-.89-.1-1.44-.16-2.16-.26-3.61-.13-.28-.19-.43-.32-.71.08-.12.12-.18.2-.3-.16-.17-.23-.25-.39-.42.08-1.86.12-2.79.2-4.65v-5.95c.08-2.03.12-3.04.2-5.07.13-.29.19-.43.32-.71-.13,0-.19,0-.32-.01v-.58c.13-.11.19-.16.32-.27-.08-.29-.12-.44-.2-.74v-7.97c.16-.91.23-1.37.39-2.28-.08-.35-.12-.53-.2-.89,0-3.94,0-5.91,0-9.84-.08-.65-.12-.97-.2-1.62-.44-.83-.66-1.24-1.11-2.07-.73-.12-1.09-.19-1.82-.31-.23-.51-.35-.77-.59-1.28-.13.27-.19.41-.32.68-.49-.09-.74-.13-1.24-.21.16-.63.23-.94.39-1.56-.1-.14-.16-.21-.26-.34-.18.86-.27,1.29-.45,2.15-.16-1.04-.23-1.56-.39-2.6-.13.57-.19.86-.32,1.43-.34.3-.51.45-.85.75-.16-.39-.23-.58-.39-.96.05-.65.08-.98.13-1.63-.05-.13-.08-.19-.13-.32.05-.95.08-1.43.13-2.38-.29.06-.43.1-.71.16v3.76c-.16.39-.23.59-.39.99-.13-.32-.19-.48-.32-.81-.18-.03-.27-.05-.45-.08-.16-1-.23-1.49-.39-2.49v-4.09c.05-.35.08-.53.13-.88v-3.63c.29-.6.43-.9.71-1.5ZM262.66,345.58v-.75c-.13.09-.19.14-.32.23.13.21.19.31.32.52ZM263.38,342.88v.3c.16.03.23.05.39.09-.08-.32-.12-.47-.2-.79-.08.16-.12.24-.2.41ZM267.8,354.58c.16.14.23.22.39.36-.16-.32-.23-.48-.39-.8v.44ZM269.55,345c.08.02.12.03.2.04-.08-.19-.12-.29-.2-.48v.44ZM270.46,430.31c.08-.13.12-.2.2-.33-.08.01-.12.02-.2.04v.29ZM270.85,409.86c.05-.47.08-.7.13-1.17-.13.18-.19.28-.32.46.08.28.12.42.2.7ZM270.98,415.05v.72c.08.16.12.24.2.41v.87c.13-.02.2-.02.33-.04.23-.55.35-.82.58-1.36-.16.19-.23.28-.39.48-.08-.28-.12-.42-.19-.7v-1.58c-.34.15-.51.23-.85.38.13.33.19.5.32.83ZM270.85,362.62c.21.03.31.04.52.07v2.59c.05.18.08.27.13.45.08-1.72.12-2.58.19-4.29-.21-.03-.31-.04-.52-.07-.13.5-.19.75-.32,1.25ZM271.5,368.18c.16-.21.23-.32.39-.53-.26-.38-.39-.56-.65-.94-.1.22-.16.33-.26.55.21.37.31.56.52.93ZM271.17,344.92c.13-.09.2-.13.33-.21-.05.28-.08.41-.13.69.13.03.19.04.32.07.1-.21.16-.31.26-.52-.18-.44-.27-.66-.45-1.11-.13.43-.2.65-.33,1.08ZM271.17,360.64c.21.03.31.05.52.08-.13-.54-.19-.8-.32-1.34-.08.16-.12.24-.2.4v.87ZM271.17,370.45v.72c.13.13.2.19.33.32v-.72c.16-.1.23-.15.39-.25-.08-.52-.12-.79-.2-1.31-.08,0-.12-.01-.19-.02-.13.5-.2.76-.33,1.26ZM271.17,439.54c.08-.31.12-.46.2-.76-.08.19-.12.28-.2.47v.29ZM271.37,435.61c.05-.01.08-.02.13-.03-.05-.1-.08-.15-.13-.26v.29ZM272.8,345.43c.29-.22.43-.33.71-.56v-.57c-.29.11-.43.16-.71.27v.86ZM273.97,412c.08.11.12.16.2.26v.85c.16-.13.23-.19.39-.32v2.55c.05.16.08.24.13.41.13-.47.2-.7.33-1.17v-1.84c.16-.36.23-.53.39-.89-.34.03-.51.05-.84.09v-1.13c-.23-.21-.35-.31-.59-.52v1.71ZM274.68,404.98c-.18.35-.27.53-.45.88.18,1.35.27,2.02.45,3.37.16-1.6.23-2.4.39-3.99-.1-.5-.16-.75-.26-1.26-.1.23-.16.35-.26.58.05.17.08.25.13.42ZM274.55,419.18c.13-.13.19-.2.32-.33-.13.64-.19.96-.32,1.6v1.84c.13.55.19.82.32,1.37.18-.99.27-1.49.45-2.48-.13-.55-.19-.82-.32-1.37v-3.26c-.05-.22-.08-.33-.13-.55-.13,1.26-.19,1.89-.32,3.16ZM276.11,361.79c.21.03.31.05.52.08.08-1.11.12-1.67.2-2.78-.21.42-.31.63-.52,1.04-.08.66-.12.99-.19,1.66ZM277.87,347.25v.84c.21-.74.31-1.1.52-1.84-.21-.05-.31-.07-.52-.12-.1.14-.16.22-.26.36.1.3.16.45.26.75ZM280.34,347.79c.16.48.23.71.39,1.19v-1.93c-.16-.03-.23-.05-.39-.09v.83ZM281.77,349.89c.13.36.19.53.32.89.08-.31.12-.47.2-.78-.21-.15-.31-.23-.52-.38v.28ZM285.08,356.9c.23-.23.35-.34.59-.57-.1.36-.16.54-.26.89v1.07c-.42-.07-.62-.11-1.04-.18v-1.35c.29.05.43.08.71.13ZM284.56,348.31c.16-.13.23-.19.39-.32.13.19.19.29.32.48.05-.15.08-.22.13-.37-.13-.46-.2-.69-.33-1.15-.21.54-.31.82-.52,1.37ZM286.51,356.36v2.14c-.29-.05-.43-.07-.72-.12v-.67c.18.14.27.21.45.35-.13-.56-.19-.84-.32-1.4.08-.15.12-.22.2-.37.16.03.23.04.39.07ZM287.03,354.59v1.2c-.29-.21-.43-.32-.71-.53v-.8c.29.05.43.08.71.14Z"/>
      </g>
    </g>
  </g>
</svg>